<svg width="690" height="529" viewBox="0 0 690 529" fill="none" xmlns="http://www.w3.org/2000/svg">
<path d="M690 464.323H0V464.678H690V464.323Z" fill="#EBEBEB"/>
<path d="M598.63 479.413H552.925V479.768H598.63V479.413Z" fill="#EBEBEB"/>
<path d="M432.037 479.243H420.044V479.598H432.037V479.243Z" fill="#EBEBEB"/>
<path d="M620.862 487.142H594.38V487.497H620.862V487.142Z" fill="#EBEBEB"/>
<path d="M158.148 491.851H98.5458V492.206H158.148V491.851Z" fill="#EBEBEB"/>
<path d="M153.028 476.364H144.293V476.719H153.028V476.364Z" fill="#EBEBEB"/>
<path d="M342.861 477.882H258.819V478.236H342.861V477.882Z" fill="#EBEBEB"/>
<path d="M327.06 401.071H60.5959C58.5084 401.067 56.5077 400.212 55.0329 398.694C53.5582 397.176 52.7299 395.118 52.7299 392.973V8.02709C52.7481 5.89414 53.5844 3.85468 55.0572 2.35171C56.53 0.848742 58.5203 0.00365387 60.5959 0H327.06C329.15 0 331.154 0.853181 332.632 2.37185C334.11 3.89052 334.94 5.95028 334.94 8.098V392.973C334.94 395.121 334.11 397.181 332.632 398.699C331.154 400.218 329.15 401.071 327.06 401.071ZM60.5959 0.283644C58.5999 0.287401 56.687 1.10488 55.2769 2.55665C53.8668 4.00843 53.0749 5.97586 53.0749 8.02709V392.973C53.0749 395.024 53.8668 396.992 55.2769 398.444C56.687 399.895 58.5999 400.713 60.5959 400.716H327.06C329.057 400.713 330.972 399.896 332.384 398.444C333.796 396.993 334.591 395.026 334.595 392.973V8.02709C334.591 5.97455 333.796 4.00715 332.384 2.55579C330.972 1.10442 329.057 0.287393 327.06 0.283644H60.5959Z" fill="#EBEBEB"/>
<path d="M625.568 401.071H359.09C357.001 401.067 354.999 400.213 353.522 398.695C352.045 397.177 351.214 395.12 351.21 392.973V8.02709C351.232 5.89284 352.071 3.8534 353.546 2.35082C355.021 0.848246 357.013 0.00361402 359.09 0H625.568C627.641 0.00738109 629.628 0.854119 631.098 2.35669C632.568 3.85925 633.402 5.89658 633.42 8.02709V392.973C633.42 395.116 632.594 397.171 631.122 398.689C629.65 400.207 627.653 401.064 625.568 401.071ZM359.09 0.283644C357.093 0.287393 355.178 1.10442 353.766 2.55579C352.354 4.00715 351.559 5.97455 351.555 8.02709V392.973C351.559 395.026 352.354 396.993 353.766 398.444C355.178 399.896 357.093 400.713 359.09 400.716H625.568C627.565 400.713 629.479 399.896 630.892 398.444C632.304 396.993 633.099 395.026 633.103 392.973V8.02709C633.099 5.97455 632.304 4.00715 630.892 2.55579C629.479 1.10442 627.565 0.287393 625.568 0.283644H359.09Z" fill="#EBEBEB"/>
<path d="M591.868 58.6147H98.1318V269.773H591.868V58.6147Z" fill="#F0F0F0"/>
<path d="M582.208 259.86V68.5566L107.792 68.5566V259.86H582.208Z" fill="#FAFAFA"/>
<path d="M170.251 259.845L218.909 68.5422H254.789L206.131 259.845H170.251Z" fill="white"/>
<path d="M214.411 259.845L263.069 68.5422H279.119L230.46 259.845H214.411Z" fill="white"/>
<path d="M292.933 259.845L341.605 68.5422H377.485L328.813 259.845H292.933Z" fill="white"/>
<path d="M383.405 259.845L432.064 68.5422H448.127L399.455 259.845H383.405Z" fill="white"/>
<path d="M234.89 259.86V68.5566H232.433V259.86H234.89Z" fill="#E0E0E0"/>
<path d="M110.248 259.86L110.248 68.5566H107.792L107.792 259.86H110.248Z" fill="#E0E0E0"/>
<path d="M232.433 259.86V68.5566H222.773V259.86H232.433Z" fill="#F0F0F0"/>
<path d="M354.66 259.86V68.5566H352.204V259.86H354.66Z" fill="#E0E0E0"/>
<path d="M352.204 259.86V68.5566H342.544V259.86H352.204Z" fill="#F0F0F0"/>
<path d="M474.485 259.845V68.5422H472.029V259.845H474.485Z" fill="#E0E0E0"/>
<path d="M472.029 259.845V68.5422H462.369V259.845H472.029Z" fill="#F0F0F0"/>
<path d="M594.325 269.773V58.6147H591.868V269.773H594.325Z" fill="#E0E0E0"/>
<path d="M599.845 44.1206H90.1554C89.5892 44.1169 89.0472 43.8841 88.6469 43.4727C88.2465 43.0612 88.02 42.5042 88.0164 41.9224C88.0163 41.3381 88.2413 40.7775 88.642 40.363C89.0428 39.9485 89.5868 39.7137 90.1554 39.71H599.845C600.413 39.7137 600.957 39.9485 601.358 40.363C601.759 40.7775 601.984 41.3381 601.984 41.9224C601.98 42.5042 601.753 43.0612 601.353 43.4727C600.953 43.8841 600.411 44.1169 599.845 44.1206Z" fill="#E0E0E0"/>
<g opacity="0.6">
<path d="M196.429 35.4553H92.1565V420.742H196.429V35.4553Z" fill="#F5F5F5"/>
<path d="M148.654 423.89H139.918L142.375 38.6038H146.28L148.654 423.89Z" fill="#E6E6E6"/>
<path d="M119.715 423.89H115.492L116.679 38.6038H118.57L119.715 423.89Z" fill="#E6E6E6"/>
<path d="M177.675 423.89H173.452L174.639 38.6038H176.53L177.675 423.89Z" fill="#E6E6E6"/>
</g>
<g opacity="0.6">
<path d="M596.602 35.4553H492.329V420.742H596.602V35.4553Z" fill="#F5F5F5"/>
<path d="M533.191 423.89H524.455L526.912 38.6038H530.817L533.191 423.89Z" fill="#E6E6E6"/>
<path d="M513.912 423.89H509.703L510.876 38.6038H512.767L513.912 423.89Z" fill="#E6E6E6"/>
<path d="M558.527 423.89H554.318L555.505 38.6038H557.382L558.527 423.89Z" fill="#E6E6E6"/>
<path d="M580 423.89H575.791L576.964 38.6038H578.855L580 423.89Z" fill="#E6E6E6"/>
</g>
<path d="M448.79 461.912H468.386V346.498H448.79V461.912Z" fill="#E6E6E6"/>
<path d="M221.614 461.912L456.338 461.912V346.498H221.614V461.912Z" fill="#F0F0F0"/>
<path d="M451.067 461.912H444.001H231.743V464.323H444.001H451.067H458.257V461.912H451.067Z" fill="#E0E0E0"/>
<path opacity="0.5" d="M228.307 400.291H449.645V353.717H228.307V400.291Z" fill="#FAFAFA"/>
<path opacity="0.5" d="M228.307 454.382H449.645V407.808H228.307V454.382Z" fill="#FAFAFA"/>
<path d="M261.855 377.004C261.855 378.017 261.563 379.006 261.015 379.848C260.468 380.69 259.69 381.347 258.78 381.734C257.869 382.122 256.868 382.223 255.901 382.025C254.935 381.828 254.047 381.34 253.351 380.624C252.654 379.908 252.179 378.996 251.987 378.003C251.795 377.01 251.894 375.98 252.271 375.045C252.648 374.109 253.286 373.31 254.105 372.747C254.925 372.185 255.888 371.884 256.873 371.884C257.527 371.884 258.175 372.017 258.78 372.274C259.384 372.531 259.933 372.908 260.396 373.384C260.858 373.859 261.225 374.424 261.476 375.045C261.726 375.666 261.855 376.332 261.855 377.004Z" fill="#E0E0E0"/>
<path d="M426.047 377.004C426.047 378.017 425.755 379.006 425.208 379.848C424.66 380.69 423.882 381.347 422.972 381.734C422.062 382.122 421.06 382.223 420.094 382.025C419.127 381.828 418.24 381.34 417.543 380.624C416.846 379.908 416.372 378.996 416.18 378.003C415.987 377.01 416.086 375.98 416.463 375.045C416.84 374.109 417.479 373.31 418.298 372.747C419.117 372.185 420.08 371.884 421.066 371.884C421.72 371.884 422.368 372.017 422.972 372.274C423.577 372.531 424.126 372.908 424.588 373.384C425.051 373.859 425.418 374.424 425.668 375.045C425.919 375.666 426.047 376.332 426.047 377.004Z" fill="#E0E0E0"/>
<path d="M256.873 436.214C259.625 436.214 261.855 433.922 261.855 431.095C261.855 428.267 259.625 425.975 256.873 425.975C254.122 425.975 251.891 428.267 251.891 431.095C251.891 433.922 254.122 436.214 256.873 436.214Z" fill="#E0E0E0"/>
<path d="M426.047 431.137C426.047 432.15 425.755 433.14 425.208 433.982C424.66 434.824 423.882 435.48 422.972 435.867C422.062 436.255 421.06 436.356 420.094 436.159C419.127 435.961 418.24 435.474 417.543 434.758C416.846 434.041 416.372 433.129 416.18 432.136C415.987 431.143 416.086 430.114 416.463 429.178C416.84 428.243 417.479 427.443 418.298 426.88C419.117 426.318 420.08 426.018 421.066 426.018C422.387 426.018 423.654 426.557 424.588 427.517C425.523 428.477 426.047 429.779 426.047 431.137Z" fill="#E0E0E0"/>
<path d="M343.951 377.004C343.951 378.017 343.659 379.006 343.112 379.848C342.564 380.69 341.786 381.347 340.876 381.734C339.965 382.122 338.964 382.223 337.997 382.025C337.031 381.828 336.143 381.34 335.447 380.624C334.75 379.908 334.275 378.996 334.083 378.003C333.891 377.01 333.99 375.98 334.367 375.045C334.744 374.109 335.382 373.31 336.202 372.747C337.021 372.185 337.984 371.884 338.969 371.884C339.624 371.884 340.271 372.017 340.876 372.274C341.48 372.531 342.029 372.908 342.492 373.384C342.955 373.859 343.322 374.424 343.572 375.045C343.822 375.666 343.951 376.332 343.951 377.004Z" fill="#E0E0E0"/>
<path d="M338.969 436.214C341.721 436.214 343.951 433.922 343.951 431.095C343.951 428.267 341.721 425.975 338.969 425.975C336.218 425.975 333.988 428.267 333.988 431.095C333.988 433.922 336.218 436.214 338.969 436.214Z" fill="#E0E0E0"/>
<path d="M441.821 326.898C441.821 332.097 439.812 337.082 436.235 340.758C432.658 344.433 427.807 346.498 422.749 346.498C417.691 346.498 412.84 344.433 409.264 340.758C405.687 337.082 403.678 332.097 403.678 326.898H441.821Z" fill="#F0F0F0"/>
<path d="M291.028 323.353C291.028 329.48 288.66 335.357 284.444 339.689C280.228 344.022 274.51 346.456 268.548 346.456C262.586 346.456 256.868 344.022 252.652 339.689C248.436 335.357 246.068 329.48 246.068 323.353H291.028Z" fill="#F0F0F0"/>
<path d="M387.67 332.897C387.67 336.505 386.275 339.964 383.793 342.515C381.312 345.065 377.945 346.498 374.435 346.498C370.926 346.498 367.559 345.065 365.078 342.515C362.596 339.964 361.201 336.505 361.201 332.897H387.67Z" fill="#F0F0F0"/>
<path d="M345 528.37C492.774 528.37 612.568 521.182 612.568 512.316C612.568 503.449 492.774 496.262 345 496.262C197.226 496.262 77.4317 503.449 77.4317 512.316C77.4317 521.182 197.226 528.37 345 528.37Z" fill="#F5F5F5"/>
<path d="M480.447 85.6034C477.508 82.5826 471.85 71.1376 477.273 65.7484C482.696 60.3592 487.526 65.252 487.899 67.8757C488.272 70.4994 487.278 92.6094 480.447 85.6034Z" fill="#464547"/>
<path d="M479.205 497.297L466.882 497.41L463.528 468.138L475.838 468.025L479.205 497.297Z" fill="#FF8B7B"/>
<path d="M466.868 495.95L480.309 495.822C480.557 495.826 480.797 495.91 480.996 496.063C481.194 496.216 481.34 496.429 481.413 496.673L484.67 507.891C484.756 508.152 484.78 508.431 484.74 508.703C484.699 508.976 484.596 509.235 484.437 509.457C484.279 509.68 484.07 509.86 483.83 509.982C483.589 510.105 483.324 510.166 483.055 510.16C478.211 510.16 471.173 509.891 465.115 509.947C457.994 509.947 454.82 510.458 446.458 510.543C441.407 510.543 439.558 505.352 441.697 504.87C451.177 502.615 456.076 502.317 464.011 496.971C464.846 496.352 465.839 495.997 466.868 495.95Z" fill="#464547"/>
<path opacity="0.2" d="M463.528 468.153L465.267 483.242L477.577 483.129L475.852 468.039L463.528 468.153Z" fill="#464547"/>
<path d="M461.776 498.204C463.104 498.18 464.427 498.014 465.722 497.708C465.784 497.699 465.84 497.669 465.883 497.622C465.925 497.576 465.952 497.516 465.957 497.453C465.963 497.392 465.95 497.33 465.92 497.277C465.89 497.224 465.846 497.181 465.791 497.155C465.212 496.857 460.037 494.319 458.615 495.212C458.484 495.298 458.377 495.418 458.304 495.56C458.232 495.702 458.196 495.86 458.201 496.02C458.198 496.293 458.256 496.563 458.371 496.809C458.486 497.055 458.655 497.271 458.864 497.439C459.727 498.014 460.75 498.283 461.776 498.204ZM464.729 497.297C462.065 497.779 460.037 497.68 459.209 496.999C459.065 496.884 458.952 496.735 458.877 496.564C458.802 496.394 458.77 496.207 458.781 496.02C458.773 495.962 458.782 495.903 458.806 495.85C458.831 495.797 458.87 495.753 458.919 495.723C459.692 495.24 462.617 496.375 464.729 497.297Z" fill="#6F2877"/>
<path d="M465.667 497.793C465.733 497.788 465.795 497.764 465.847 497.722C465.888 497.69 465.92 497.646 465.937 497.596C465.954 497.545 465.956 497.49 465.943 497.439C465.943 497.212 464.977 491.766 462.052 492.106C461.279 492.191 461.058 492.603 461.017 492.915C460.81 494.333 463.97 497.084 465.543 497.765L465.667 497.793ZM462.3 492.688C464.066 492.688 464.95 495.652 465.253 496.942C463.625 496.006 461.472 493.851 461.596 493C461.596 493 461.596 492.759 462.121 492.702L462.3 492.688Z" fill="#6F2877"/>
<path d="M470.497 149.522L469.228 150.94L468.041 152.146C467.254 152.94 466.44 153.692 465.626 154.429C464.007 155.923 462.351 157.341 460.658 158.684C457.242 161.474 453.645 164.023 449.894 166.314C448.003 167.463 446.057 168.555 444.084 169.59C442.111 170.625 440.027 171.519 437.929 172.426C433.628 174.19 429.147 175.451 424.571 176.185L423.55 176.341C422.886 176.429 422.218 176.471 421.549 176.468C420.012 176.454 418.491 176.146 417.064 175.561C415.648 174.977 414.351 174.125 413.241 173.05C412.356 172.184 411.586 171.202 410.95 170.129C410.069 168.573 409.405 166.897 408.977 165.151C408.642 163.799 408.398 162.425 408.245 161.038C407.994 158.641 407.925 156.228 408.038 153.819C408.135 151.522 408.314 149.31 408.563 147.14C409.087 142.786 409.832 138.63 410.743 134.376C411.654 130.121 412.689 126.193 414.028 122.08L423.094 123.924C422.763 131.894 422.39 140.063 422.639 147.778C422.684 151.36 423.054 154.931 423.743 158.443C423.879 159.092 424.068 159.727 424.309 160.343C424.502 160.825 424.736 161.123 424.723 160.996C424.642 160.78 424.515 160.585 424.35 160.428C423.974 160.055 423.535 159.757 423.053 159.549C422.557 159.335 422.03 159.205 421.493 159.166C421.245 159.166 421.135 159.166 420.983 159.166H421.135L421.424 159.081C424.693 158.218 427.873 157.031 430.919 155.536C434.106 153.955 437.189 152.164 440.151 150.175C443.146 148.132 446.099 145.92 448.942 143.58C450.322 142.417 451.771 141.197 453.082 139.964L455.096 138.091L456.062 137.17L456.904 136.347L470.497 149.522Z" fill="#FF8B7B"/>
<path d="M477.797 144.516C477.328 131.142 466.647 126.49 453.261 135.61C447.36 139.455 441.679 143.645 436.245 148.161L444.898 176.724C444.898 176.724 461.458 171.32 471.035 160.712C477.48 153.507 477.963 149.068 477.797 144.516Z" fill="#464547"/>
<path opacity="0.2" d="M461.5 150.217C461.5 150.217 453.509 161.96 450.68 174.44C454.609 172.719 458.393 170.67 461.996 168.314L461.5 150.217Z" fill="#464547"/>
<path d="M422.639 128.164L427.276 117.4L414.152 113.457C414.152 113.457 411.902 118.605 413.186 127.441L422.639 128.164Z" fill="#FF8B7B"/>
<path d="M428.669 104.778L417.257 106.182L414.152 113.457L427.276 117.4L428.669 104.778Z" fill="#FF8B7B"/>
<path d="M461.582 241.465C461.582 241.465 453.109 314.446 452.171 353.504C451.205 394.079 458.947 475.924 458.947 475.924L481.178 475.442C481.178 475.442 483.855 387.825 487.085 347.675C490.59 303.909 499.422 240.671 499.422 240.671L461.582 241.465Z" fill="#6F2877"/>
<path opacity="0.6" d="M461.582 241.465C461.582 241.465 453.109 314.446 452.171 353.504C451.205 394.079 458.947 475.924 458.947 475.924L481.178 475.442C481.178 475.442 483.855 387.825 487.085 347.675C490.59 303.909 499.422 240.671 499.422 240.671L461.582 241.465Z" fill="white"/>
<path opacity="0.2" d="M488.064 262.128C478.128 284.636 480.792 334.911 486.436 356.468C486.643 353.334 486.864 350.37 487.085 347.633C489.389 318.786 493.985 281.501 496.896 259.42C494.192 255.392 491.169 255.08 488.064 262.128Z" fill="#464547"/>
<path d="M483.911 476.421L457.774 476.96L455.842 468.039L483.593 467.968L483.911 476.421Z" fill="#6F2877"/>
<path d="M534.115 497.297L521.806 497.41L518.452 468.138L530.762 468.025L534.115 497.297Z" fill="#FF8B7B"/>
<path d="M521.778 495.95L535.233 495.822C535.48 495.828 535.72 495.913 535.918 496.066C536.116 496.218 536.262 496.43 536.337 496.673L539.594 507.891C539.677 508.152 539.699 508.43 539.657 508.701C539.615 508.972 539.511 509.229 539.353 509.451C539.195 509.673 538.988 509.853 538.749 509.976C538.511 510.099 538.247 510.162 537.979 510.16C533.122 510.16 526.097 509.891 520.039 509.947C512.918 509.947 509.731 510.458 501.382 510.543C496.331 510.543 494.482 505.352 496.621 504.87C506.087 502.615 510.986 502.317 518.935 496.971C519.765 496.352 520.754 495.997 521.778 495.95Z" fill="#464547"/>
<path opacity="0.2" d="M518.452 468.153L520.177 483.242L532.501 483.129L530.776 468.039L518.452 468.153Z" fill="#464547"/>
<path d="M516.7 498.204C518.028 498.178 519.351 498.012 520.646 497.708C520.706 497.698 520.761 497.668 520.801 497.621C520.841 497.574 520.865 497.515 520.867 497.453C520.876 497.393 520.866 497.332 520.839 497.278C520.812 497.225 520.768 497.181 520.715 497.155C520.122 496.857 514.947 494.319 513.539 495.212C513.406 495.296 513.297 495.415 513.224 495.558C513.151 495.7 513.117 495.86 513.125 496.02C513.123 496.292 513.18 496.56 513.292 496.806C513.404 497.051 513.569 497.268 513.774 497.439C514.643 498.012 515.67 498.281 516.7 498.204ZM519.653 497.297C516.989 497.779 514.961 497.68 514.133 496.999C513.99 496.882 513.876 496.733 513.8 496.563C513.723 496.393 513.686 496.208 513.691 496.02C513.683 495.962 513.692 495.903 513.716 495.85C513.741 495.797 513.78 495.753 513.829 495.723C514.602 495.24 517.5 496.375 519.653 497.297Z" fill="#6F2877"/>
<path d="M520.577 497.793C520.62 497.792 520.661 497.781 520.7 497.762C520.738 497.743 520.772 497.715 520.799 497.682C520.826 497.649 520.846 497.61 520.858 497.568C520.87 497.526 520.873 497.482 520.867 497.439C520.867 497.212 519.901 491.766 516.976 492.106C516.203 492.191 515.982 492.603 515.927 492.915C515.734 494.333 518.894 497.084 520.467 497.765L520.577 497.793ZM517.224 492.688C518.977 492.688 519.874 495.652 520.177 496.942C518.549 496.006 516.382 493.851 516.506 493C516.506 493 516.506 492.759 517.031 492.702L517.224 492.688Z" fill="#6F2877"/>
<path d="M483.276 240.983C483.276 240.983 489.417 319.509 493.902 358.255C498.553 398.561 513.871 475.882 513.871 475.882L536.102 475.4C536.102 475.4 530.003 387.612 527.643 347.392C525.062 303.498 524.4 240.019 524.4 240.019L483.276 240.983Z" fill="#6F2877"/>
<path opacity="0.6" d="M483.276 240.983C483.276 240.983 489.417 319.509 493.902 358.255C498.553 398.561 513.871 475.882 513.871 475.882L536.102 475.4C536.102 475.4 530.003 387.612 527.643 347.392C525.062 303.498 524.4 240.019 524.4 240.019L483.276 240.983Z" fill="white"/>
<path d="M538.835 476.421L512.684 476.96L510.766 468.039L538.517 467.968L538.835 476.421Z" fill="#6F2877"/>
<path d="M460.051 132.107C460.051 132.107 450.956 166.796 461.582 241.465C481.427 241.026 514.754 240.231 524.4 240.047C524.648 229.651 517.183 178.681 525.918 129.54C519.634 128.425 513.277 127.789 506.902 127.639C497.569 127.289 488.224 127.497 478.915 128.263C472.539 129.039 466.232 130.324 460.051 132.107Z" fill="#464547"/>
<path opacity="0.2" d="M522.109 164.513L511.828 155.762C512.504 162.598 518.521 179.347 521.695 187.828C521.64 180.397 521.709 172.554 522.109 164.513Z" fill="#464547"/>
<path d="M485.332 152.217L474.113 175.036C473.876 175.515 473.793 176.059 473.876 176.59C473.959 177.12 474.204 177.61 474.575 177.989C474.947 178.367 475.425 178.615 475.942 178.696C476.459 178.777 476.988 178.687 477.452 178.44L484.78 174.298C485.179 174.078 485.629 173.978 486.08 174.008C486.532 174.038 486.966 174.197 487.333 174.469L494.551 179.815C494.965 180.125 495.466 180.29 495.978 180.285C496.491 180.28 496.988 180.105 497.397 179.787C497.805 179.469 498.103 179.024 498.247 178.518C498.39 178.013 498.372 177.473 498.194 176.979L489.762 152.614C489.615 152.151 489.339 151.742 488.968 151.438C488.597 151.135 488.147 150.951 487.675 150.908C487.203 150.866 486.729 150.967 486.312 151.2C485.895 151.433 485.555 151.786 485.332 152.217Z" fill="white"/>
<path d="M503.452 95.2473C501.878 104.551 500.471 121.541 506.902 127.568C506.902 127.568 505.025 135.993 487.899 138.914C476.39 135.113 478.915 128.249 478.915 128.249C488.906 125.555 488.479 117.91 486.588 110.763L503.452 95.2473Z" fill="#FF8B7B"/>
<path opacity="0.2" d="M496.579 101.558L486.588 110.692C487.053 112.357 487.376 114.06 487.554 115.783C491.39 115.131 496.565 110.677 496.883 106.55C497.078 104.881 496.975 103.189 496.579 101.558Z" fill="#464547"/>
<path d="M508.93 83.8021C505.604 95.8853 504.266 103.132 496.924 108.082C485.884 115.513 472.346 106.664 472.084 93.7722C471.836 82.1996 477.3 64.3726 490.024 62.1035C492.819 61.594 495.694 61.8262 498.377 62.7783C501.06 63.7303 503.462 65.3706 505.355 67.5437C507.248 69.7168 508.571 72.3508 509.196 75.196C509.822 78.0412 509.73 81.0035 508.93 83.8021Z" fill="#FF8B7B"/>
<path d="M501.851 91.2053C500.305 87.3478 499.187 74.6406 505.632 71.5205C512.077 68.4004 518.77 76.0162 517.072 79.6185C514.464 85.2063 505.439 100.14 501.851 91.2053Z" fill="#464547"/>
<path d="M505.701 76.0019C504.114 71.7473 485.194 69.3363 482.545 64.7555C479.398 59.3095 492.301 58.6572 501.175 61.4227C508.972 63.862 514.174 66.2162 513.263 72.1727C512.753 75.5481 505.701 76.0019 505.701 76.0019Z" fill="#464547"/>
<path d="M509.813 71.6197C509.813 71.6197 513.953 72.7827 516.217 69.6626C515.499 72.7543 511.98 75.8744 509.813 71.6197Z" fill="#464547"/>
<path d="M490.866 58.5013C485.18 53.963 477.439 59.2955 478.17 65.2094C478.901 71.1234 498.07 75.6191 498.07 75.6191C498.07 75.6191 498.415 64.5287 490.866 58.5013Z" fill="#464547"/>
<path d="M478.184 65.2377C479.053 69.3789 481.993 72.6266 487.94 75.0376C484.498 72.4216 481.89 68.8131 480.447 64.6704L478.184 65.2377Z" fill="#464547"/>
<path d="M490.121 83.1925C489.914 84.1994 489.237 84.8943 488.603 84.7525C487.968 84.6107 487.623 83.6747 487.83 82.6819C488.037 81.6892 488.727 80.9942 489.362 81.136C489.996 81.2779 490.341 82.2564 490.121 83.1925Z" fill="#464547"/>
<path d="M479.164 80.7532C478.943 81.7459 478.266 82.4409 477.632 82.299C476.997 82.1572 476.652 81.2354 476.859 80.2426C477.066 79.2499 477.756 78.555 478.391 78.6826C479.026 78.8102 479.371 79.7604 479.164 80.7532Z" fill="#464547"/>
<path d="M482.544 82.0293C480.743 84.8191 478.574 87.3391 476.1 89.5175C477.48 91.5455 480.557 91.4463 480.557 91.4463L482.544 82.0293Z" fill="#FF5652"/>
<path d="M482.793 94.8358C484.089 95.1666 485.443 95.1704 486.741 94.8469C488.038 94.5234 489.241 93.8822 490.245 92.978C490.273 92.9502 490.294 92.9172 490.309 92.8806C490.324 92.8441 490.332 92.8049 490.332 92.7653C490.332 92.7256 490.324 92.6864 490.309 92.6499C490.294 92.6133 490.273 92.5802 490.245 92.5525C490.189 92.4987 490.115 92.4688 490.038 92.4688C489.961 92.4688 489.887 92.4987 489.831 92.5525C488.889 93.3675 487.774 93.9446 486.576 94.2377C485.378 94.5307 484.129 94.5316 482.931 94.2402C482.854 94.2233 482.774 94.2384 482.708 94.2823C482.642 94.3262 482.596 94.3952 482.579 94.4742C482.563 94.5532 482.577 94.6357 482.62 94.7035C482.663 94.7713 482.73 94.8189 482.807 94.8358H482.793Z" fill="#464547"/>
<path d="M494.192 80.2991C494.298 80.3208 494.407 80.3125 494.509 80.2749C494.611 80.2374 494.7 80.172 494.768 80.0859C494.837 79.9998 494.881 79.8963 494.896 79.7864C494.911 79.6765 494.896 79.5644 494.854 79.4623C494.481 78.5888 493.911 77.8193 493.191 77.2175C492.471 76.6156 491.622 76.1989 490.714 76.0019C490.561 75.9815 490.406 76.0234 490.282 76.1188C490.158 76.2142 490.076 76.3554 490.052 76.5124C490.04 76.5897 490.043 76.6686 490.061 76.7447C490.079 76.8207 490.111 76.8924 490.156 76.9556C490.201 77.0188 490.257 77.0724 490.322 77.1131C490.387 77.1539 490.46 77.1811 490.535 77.1932C491.251 77.3549 491.919 77.6903 492.483 78.1714C493.047 78.6525 493.491 79.2653 493.778 79.9587C493.816 80.0445 493.874 80.12 493.946 80.179C494.018 80.2381 494.102 80.2792 494.192 80.2991Z" fill="#464547"/>
<path d="M475.162 75.8034C475.27 75.8342 475.385 75.8303 475.491 75.7923C475.597 75.7543 475.689 75.684 475.755 75.5907C476.192 74.9883 476.761 74.4998 477.415 74.1648C478.069 73.8297 478.791 73.6575 479.522 73.6619C479.676 73.677 479.829 73.6286 479.948 73.5276C480.067 73.4265 480.143 73.281 480.157 73.123C480.172 72.965 480.125 72.8075 480.027 72.6852C479.928 72.5628 479.787 72.4857 479.633 72.4706C478.707 72.4424 477.788 72.6443 476.955 73.0591C476.121 73.4739 475.397 74.0893 474.844 74.8532C474.795 74.9139 474.759 74.9841 474.737 75.0597C474.715 75.1353 474.709 75.2146 474.718 75.2929C474.727 75.3711 474.751 75.4467 474.79 75.515C474.828 75.5832 474.879 75.6428 474.941 75.69C475.004 75.7468 475.08 75.7859 475.162 75.8034Z" fill="#464547"/>
<path d="M528.926 139.212C531.438 143.722 533.535 148.09 535.716 152.586C537.896 157.081 539.856 161.606 541.719 166.229C543.582 170.852 545.39 175.547 546.963 180.411C548.599 185.262 549.981 190.2 551.103 195.203L551.945 199.075C552.313 200.893 552.47 202.75 552.414 204.606C552.297 208.055 551.553 211.451 550.22 214.618C547.877 219.956 544.544 224.773 540.408 228.801C536.719 232.461 532.698 235.752 528.402 238.629C526.318 240.047 524.165 241.352 521.999 242.6C519.832 243.848 517.679 244.997 515.264 246.089L510.683 237.849C512.352 236.431 514.188 235.012 515.899 233.481C517.61 231.949 519.28 230.389 520.936 228.829C524.134 225.78 527.1 222.485 529.809 218.972C532.219 215.96 534.088 212.531 535.329 208.846C535.757 207.473 535.925 206.029 535.826 204.592C535.786 204.013 535.679 203.442 535.509 202.89L534.57 199.713C531.782 190.901 528.464 182.276 524.634 173.887C522.744 169.633 520.729 165.378 518.714 161.123C516.699 156.869 514.574 152.614 512.518 148.572L528.926 139.212Z" fill="#FF8B7B"/>
<path d="M526.387 129.61C537.896 132.163 545.9 163.024 545.9 163.024L525.325 182.212C518.783 174.733 513.637 166.079 510.145 156.684C504.694 141.24 514.078 126.859 526.387 129.61Z" fill="#464547"/>
<path d="M513.18 236.388L499.946 236.53L508.226 250.244C508.226 250.244 517.652 247.847 518.493 242.983L513.18 236.388Z" fill="#FF8B7B"/>
<path d="M491.708 244.628L499.008 255.633L508.157 250.244L499.946 236.53L491.708 244.628Z" fill="#FF8B7B"/>
<path d="M512.546 94.8643C511.076 97.6445 508.595 99.7143 505.646 100.622C501.727 101.799 499.726 98.2112 500.774 94.3962C501.727 90.9642 504.914 86.2132 508.834 86.7095C512.753 87.2059 514.298 91.4464 512.546 94.8643Z" fill="#FF8B7B"/>
<path d="M395.251 329.517L380.537 330.614L380.637 332.029L395.351 330.932L395.251 329.517Z" fill="#6F2877"/>
<path d="M408.472 328.537L401.246 329.076L401.346 330.49L408.572 329.952L408.472 328.537Z" fill="#6F2877"/>
<path d="M471.96 162.059L228.307 180.113C223.236 180.52 218.526 182.965 215.198 186.919C211.87 190.872 210.194 196.015 210.533 201.231L218.813 319.254C219.205 324.474 221.587 329.323 225.44 332.746C229.294 336.17 234.307 337.891 239.389 337.535L253.189 336.514C254.191 336.44 255.182 336.777 255.942 337.453C256.703 338.128 257.172 339.086 257.246 340.116L258.791 361.985C258.817 362.409 258.965 362.815 259.216 363.151C259.468 363.488 259.811 363.739 260.203 363.873C260.595 364.008 261.016 364.018 261.414 363.904C261.812 363.79 262.167 363.556 262.435 363.233L285.536 335.791C286.507 334.641 287.881 333.933 289.358 333.819L483 319.481C488.074 319.078 492.788 316.634 496.118 312.68C499.449 308.727 501.127 303.582 500.788 298.364L492.508 180.34C492.116 175.126 489.738 170.282 485.891 166.859C482.043 163.436 477.037 161.711 471.96 162.059Z" fill="#6F2877"/>
<path d="M263.897 234.289L277.063 233.311L278.139 248.627L292.519 247.564L291.442 232.247L304.663 231.254L307.74 275.02L294.52 275.999L293.278 258.3L278.898 259.377L280.14 277.077L266.989 278.055L263.897 234.289Z" fill="white"/>
<path opacity="0.2" d="M228.307 180.113C223.236 180.52 218.526 182.965 215.198 186.919C211.87 190.872 210.194 196.015 210.533 201.23L218.813 319.254C219.205 324.474 221.587 329.323 225.44 332.746C229.294 336.17 234.307 337.891 239.389 337.535L241.417 337.379C244.788 337.129 247.984 335.742 250.509 333.434C253.034 331.126 254.747 328.026 255.383 324.615L283.135 176.043L228.307 180.113Z" fill="#464547"/>
<path d="M349.043 259.051L325.335 260.81C325.517 262.388 326.162 263.872 327.184 265.064C327.771 265.698 328.492 266.185 329.292 266.485C330.091 266.785 330.947 266.891 331.793 266.794C332.956 266.709 334.077 266.318 335.05 265.66C335.812 265.067 336.462 264.337 336.968 263.504L348.698 263.745C347.422 266.718 345.35 269.256 342.723 271.063C340.313 272.633 336.752 273.578 332.042 273.9C328.749 274.294 325.411 273.93 322.271 272.836C319.754 271.75 317.594 269.943 316.048 267.631C314.275 264.999 313.256 261.908 313.108 258.711C312.862 256.49 313.071 254.241 313.722 252.108C314.374 249.976 315.453 248.007 316.889 246.33C319.76 243.039 323.9 241.191 329.309 240.784C332.891 240.347 336.522 240.784 339.908 242.061C342.5 243.199 344.685 245.137 346.159 247.606C347.847 250.673 348.794 254.112 348.919 257.633L349.043 259.051ZM336.623 254.116C336.456 252.271 335.682 250.541 334.429 249.209C333.798 248.71 333.075 248.349 332.303 248.15C331.531 247.95 330.727 247.916 329.941 248.049C329.156 248.182 328.405 248.479 327.736 248.923C327.068 249.366 326.494 249.946 326.053 250.627C325.316 251.961 324.944 253.475 324.976 255.009L336.623 254.116Z" fill="white"/>
<path d="M352.701 227.694L364.555 226.815L367.632 270.567L355.778 271.446L352.701 227.694Z" fill="white"/>
<path d="M372.504 226.219L384.358 225.34L387.435 269.092L375.595 269.971L372.504 226.219Z" fill="white"/>
<path d="M392.431 252.882C392.207 250.662 392.44 248.419 393.115 246.298C393.79 244.177 394.892 242.226 396.35 240.572C399.303 237.196 403.484 235.305 408.894 234.899C415.058 234.445 419.851 235.939 423.274 239.38C426.116 242.461 427.758 246.508 427.888 250.752C428.018 254.995 426.626 259.14 423.977 262.398C421.052 265.745 416.811 267.636 411.254 268.071C406.937 268.603 402.576 267.548 398.944 265.093C397.012 263.715 395.418 261.895 394.288 259.776C393.158 257.657 392.522 255.297 392.431 252.882ZM404.285 251.974C404.263 254.213 405.01 256.388 406.396 258.115C406.955 258.703 407.632 259.159 408.379 259.452C409.127 259.745 409.927 259.867 410.725 259.81C411.523 259.754 412.3 259.52 413.001 259.124C413.702 258.728 414.312 258.181 414.787 257.519C415.902 255.545 416.321 253.236 415.973 250.981C415.987 248.788 415.249 246.659 413.89 244.968C413.358 244.369 412.7 243.904 411.965 243.609C411.23 243.314 410.439 243.196 409.653 243.266C408.833 243.306 408.033 243.538 407.315 243.947C406.597 244.355 405.981 244.928 405.513 245.621C404.401 247.528 403.985 249.78 404.34 251.974H404.285Z" fill="white"/>
<path d="M431.623 221.823L444.25 220.887L444.954 230.814L443.919 251.024L436.108 251.605L432.313 231.75L431.623 221.823ZM434.383 254.839L446.168 253.96L446.927 264.681L435.128 265.547L434.383 254.839Z" fill="white"/>
<path d="M224.94 141.254C224.878 143.33 224.984 145.408 225.257 147.466C212.753 151.758 199.417 152.843 186.41 150.629C187.035 148.203 187.414 145.717 187.542 143.211C187.107 145.735 186.253 148.162 185.017 150.387C182.56 149.905 181.18 149.494 181.18 149.494C181.18 149.494 183.692 135.539 179.165 125.384C174.639 115.23 176.902 109.557 180.325 107.955C186.673 87.901 210.533 91.0636 218.606 99.2041C228.845 109.529 228.901 138.616 230.722 145.268C229.218 145.934 227.741 146.544 226.265 147.083C225.525 145.225 225.078 143.257 224.94 141.254Z" fill="#464547"/>
<path d="M234.807 172.469L236.049 176.511C236.504 177.929 236.96 179.348 237.429 180.695C238.354 183.531 239.32 186.368 240.355 189.091C241.39 191.814 242.383 194.678 243.46 197.458L245.06 201.713L245.461 202.762L245.557 203.003C245.387 202.85 245.19 202.73 244.978 202.649C244.674 202.535 244.55 202.649 244.743 202.649C245.075 202.647 245.406 202.595 245.723 202.493C246.802 202.141 247.839 201.666 248.814 201.075C251.167 199.665 253.418 198.082 255.548 196.338C257.784 194.551 259.978 192.636 262.131 190.665C264.284 188.694 266.45 186.637 268.534 184.623L272.771 188.311C271.004 190.92 269.141 193.303 267.251 195.728C265.36 198.153 263.235 200.422 261.055 202.677C258.81 205.031 256.367 207.176 253.754 209.088C252.259 210.164 250.653 211.067 248.966 211.782C247.895 212.224 246.772 212.519 245.626 212.661C244.071 212.86 242.492 212.641 241.045 212.023C239.467 211.332 238.122 210.178 237.181 208.705C236.974 208.378 236.78 208.052 236.629 207.754L236.256 206.989L235.759 205.953C235.111 204.535 234.379 203.117 233.813 201.784C232.558 198.947 231.302 196.111 230.156 193.274C229.011 190.438 227.893 187.516 226.831 184.595C226.334 183.177 225.837 181.631 225.368 180.142C224.899 178.653 224.443 177.192 223.988 175.447L234.807 172.469Z" fill="#FFC3BD"/>
<path d="M231.536 159.875C236.297 161.123 239.623 181.234 239.623 181.234L226.513 190.395C226.513 190.395 213.955 170.101 217.612 164.726C221.421 159.138 224.595 158.06 231.536 159.875Z" fill="#6F2877"/>
<path d="M231.536 159.875C236.297 161.123 239.623 181.234 239.623 181.234L226.513 190.395C226.513 190.395 213.955 170.101 217.612 164.726C221.421 159.138 224.595 158.06 231.536 159.875Z" fill="#6F2877"/>
<path opacity="0.4" d="M231.536 159.875C236.297 161.123 239.623 181.234 239.623 181.234L226.513 190.395C226.513 190.395 213.955 170.101 217.612 164.726C221.421 159.138 224.595 158.06 231.536 159.875Z" fill="white"/>
<path opacity="0.3" d="M231.109 164.371L234.765 184.637L227.396 189.771L231.109 164.371Z" fill="#464547"/>
<path d="M268.313 185.105L272.688 174.27L278.084 185.105C278.084 185.105 274.579 190.495 269.956 189.176L268.313 185.105Z" fill="#FFC3BD"/>
<path d="M277.504 173.15L284.432 176.015L278.084 185.105L272.674 174.27L277.504 173.15Z" fill="#FFC3BD"/>
<path d="M205.799 498.432H217.35L218.123 470.961H206.572L205.799 498.432Z" fill="#FFC3BD"/>
<path d="M128.354 463.047L138.966 467.699L152.863 443.93L142.237 439.278L128.354 463.047Z" fill="#FFC3BD"/>
<path d="M141.008 466.082L129.968 459.104C129.78 458.98 129.553 458.931 129.331 458.968C129.11 459.004 128.909 459.124 128.768 459.303L122.13 467.486C121.965 467.7 121.846 467.948 121.782 468.213C121.718 468.479 121.71 468.755 121.758 469.023C121.807 469.292 121.91 469.547 122.062 469.771C122.215 469.995 122.412 470.183 122.641 470.322C126.532 472.691 128.519 473.627 133.377 476.69C136.372 478.591 140.539 481.654 144.665 484.263C148.792 486.873 151.565 482.845 150.034 481.356C143.341 474.79 143.534 471.67 142.278 467.784C142.069 467.077 141.618 466.473 141.008 466.082Z" fill="#464547"/>
<path d="M217.736 497.056H204.778C204.555 497.053 204.339 497.134 204.169 497.282C203.999 497.431 203.887 497.638 203.853 497.864L202.377 508.416C202.341 508.686 202.362 508.962 202.44 509.223C202.518 509.484 202.65 509.725 202.827 509.929C203.004 510.133 203.222 510.294 203.466 510.403C203.71 510.511 203.974 510.564 204.24 510.557C208.766 510.486 210.947 510.203 216.66 510.203C220.165 510.203 227.424 510.586 232.268 510.586C237.111 510.586 237.36 505.665 235.345 505.211C226.306 503.211 222.746 500.46 219.696 497.836C219.156 497.341 218.46 497.064 217.736 497.056Z" fill="#464547"/>
<path opacity="0.2" d="M218.109 470.975L217.723 485.129H206.172L206.572 470.975H218.109Z" fill="#464547"/>
<path opacity="0.2" d="M142.237 439.292L152.849 443.93L145.687 456.183L135.074 451.531L142.237 439.292Z" fill="#464547"/>
<path d="M231.536 159.875C231.536 159.875 237.056 161.861 226.016 231.453H179.096C179.883 211.853 179.911 199.77 170.816 159.535C177.377 158.142 184.028 157.241 190.716 156.84C197.805 156.315 204.921 156.315 212.009 156.84C221.173 157.691 231.536 159.875 231.536 159.875Z" fill="#6F2877"/>
<path opacity="0.4" d="M231.536 159.875C231.536 159.875 237.056 161.861 226.016 231.453H179.096C179.883 211.853 179.911 199.77 170.816 159.535C177.377 158.142 184.028 157.241 190.716 156.84C197.805 156.315 204.921 156.315 212.009 156.84C221.173 157.691 231.536 159.875 231.536 159.875Z" fill="white"/>
<path d="M190.744 156.826C197.833 156.315 204.948 156.315 212.037 156.826C213.182 156.94 214.355 157.067 215.515 157.209C215.997 157.954 216.306 158.804 216.419 159.691C216.531 160.579 216.444 161.481 216.163 162.329C214.659 166.144 209.263 166.584 205.344 166.584C190.84 166.584 188.384 157.876 188.287 157.507L188.149 156.982L190.744 156.826Z" fill="white"/>
<path d="M192.855 132.206C194.235 139.297 195.546 152.146 190.744 156.84C190.744 156.84 192.62 163.932 205.344 163.932C219.337 163.932 212.037 156.84 212.037 156.84C204.392 154.968 204.599 149.14 205.924 143.679L192.855 132.206Z" fill="#FFC3BD"/>
<path d="M194.249 127.2C192.607 132.773 194.884 145.963 198.265 151.068C191.599 147.14 189.35 135.17 189.35 135.17L194.249 127.2Z" fill="#464547"/>
<path opacity="0.2" d="M198.182 136.886L205.924 143.665C205.584 144.936 205.362 146.237 205.261 147.551C202.349 147.112 198.361 143.821 198.03 140.687C197.858 139.421 197.91 138.134 198.182 136.886Z" fill="#464547"/>
<path d="M186.535 119.641C189.212 131.086 190.095 135.993 196.802 140.914C206.89 148.303 219.986 142.431 220.69 130.391C221.324 119.556 216.853 102.665 205.054 100.055C202.454 99.4652 199.751 99.5679 197.201 100.353C194.651 101.139 192.338 102.581 190.483 104.543C188.627 106.506 187.291 108.922 186.6 111.565C185.909 114.207 185.886 116.987 186.535 119.641Z" fill="#FFC3BD"/>
<path d="M226.03 231.453C226.03 231.453 235.124 322.814 234.31 358.979C233.523 396.59 220.11 482.363 220.11 482.363H204.516C204.516 482.363 206.986 398.759 205.606 361.815C204.102 321.538 191.654 231.424 191.654 231.424L226.03 231.453Z" fill="#6F2877"/>
<path opacity="0.4" d="M226.03 231.453C226.03 231.453 235.124 322.814 234.31 358.979C233.523 396.59 220.11 482.363 220.11 482.363H204.516C204.516 482.363 206.986 398.759 205.606 361.815C204.102 321.538 191.654 231.424 191.654 231.424L226.03 231.453Z" fill="#464547"/>
<path d="M203.219 482.959H221.518L222.87 476.96L202.363 476.222L203.219 482.959Z" fill="#6F2877"/>
<path opacity="0.2" d="M205.813 254.187C217.322 277.984 208.118 321.396 204.047 337.549C201.963 313.298 198.444 283.657 195.698 261.859C197.437 249.606 200.5 243.21 205.813 254.187Z" fill="#464547"/>
<path d="M213.652 231.453C213.652 231.453 203.026 326.473 195.008 356.922C185.5 393.129 149.302 454.779 149.302 454.779L134.826 448.454C134.826 448.454 157.223 378.451 164.51 359.376C180.035 318.673 166.745 258.016 179.152 231.453H213.652Z" fill="#6F2877"/>
<path opacity="0.4" d="M213.652 231.453C213.652 231.453 203.026 326.473 195.008 356.922C185.5 393.129 149.302 454.779 149.302 454.779L134.826 448.454C134.826 448.454 157.223 378.451 164.51 359.376C180.035 318.673 166.745 258.016 179.152 231.453H213.652Z" fill="#464547"/>
<path d="M132.825 448.496L150.793 456.353L155.112 451.389L134.384 441.164L132.825 448.496Z" fill="#6F2877"/>
<path d="M204.24 119.797C204.406 120.733 205.013 121.414 205.62 121.3C206.227 121.187 206.572 120.336 206.407 119.4C206.241 118.464 205.634 117.783 205.027 117.882C204.419 117.981 204.005 118.847 204.24 119.797Z" fill="#464547"/>
<path d="M214.535 117.925C214.687 118.861 215.308 119.541 215.915 119.428C216.522 119.315 216.881 118.464 216.715 117.528C216.55 116.592 215.942 115.911 215.335 116.01C214.728 116.109 214.369 116.974 214.535 117.925Z" fill="#464547"/>
<path d="M215.073 116.123L217.157 115.06C217.157 115.06 216.329 117.031 215.073 116.123Z" fill="#464547"/>
<path d="M212.065 120.038C213.249 122.039 214.698 123.862 216.37 125.455C215.961 125.881 215.466 126.211 214.92 126.421C214.375 126.632 213.791 126.719 213.21 126.675L212.065 120.038Z" fill="#ED847E"/>
<path d="M209.056 131.114C209.579 131.113 210.101 131.066 210.616 130.972C210.655 130.971 210.694 130.96 210.729 130.942C210.764 130.924 210.795 130.898 210.82 130.866C210.844 130.835 210.862 130.798 210.872 130.759C210.882 130.72 210.883 130.679 210.876 130.639C210.869 130.599 210.854 130.561 210.832 130.528C210.809 130.494 210.78 130.466 210.746 130.445C210.712 130.425 210.675 130.412 210.635 130.407C210.596 130.402 210.557 130.407 210.519 130.419C209.383 130.652 208.209 130.605 207.093 130.282C205.978 129.959 204.953 129.369 204.102 128.561C204.05 128.509 203.981 128.48 203.909 128.48C203.837 128.48 203.767 128.509 203.716 128.561C203.689 128.587 203.667 128.617 203.653 128.651C203.638 128.686 203.631 128.723 203.631 128.76C203.631 128.797 203.638 128.834 203.653 128.868C203.667 128.902 203.689 128.933 203.716 128.958C205.156 130.362 207.071 131.135 209.056 131.114Z" fill="#464547"/>
<path d="M190.44 112.932C190.742 115.948 191.202 118.945 191.82 121.91C191.82 121.91 198.72 112.932 199.865 108.125C199.591 110.018 199.057 111.861 198.278 113.599C198.278 113.599 207.566 111.514 208.476 105.217C208.461 108.036 208.155 110.846 207.566 113.599C207.566 113.599 216.425 110.025 215.611 103.983C214.797 97.9419 201.19 95.6018 194.911 97.644C188.632 99.6863 182.491 106.309 184.34 115.414C186.189 124.519 189.736 127.937 189.736 127.937C189.736 127.937 187.183 118.761 190.44 112.932Z" fill="#464547"/>
<path d="M186.052 128.263C186.903 130.364 188.531 132.032 190.578 132.901C193.338 134.036 194.98 131.61 194.497 128.802C194.069 126.264 192.124 122.633 189.267 122.69C188.642 122.718 188.034 122.906 187.497 123.237C186.96 123.567 186.512 124.03 186.193 124.583C185.874 125.136 185.694 125.762 185.669 126.405C185.644 127.047 185.776 127.686 186.052 128.263Z" fill="#FFC3BD"/>
<path d="M192.11 108.564C190.73 114.237 193.6 127.285 197.216 132.206C190.316 128.618 187.556 116.762 187.556 116.762L192.11 108.564Z" fill="#464547"/>
<path d="M200.459 116.563C200.53 116.541 200.595 116.505 200.652 116.456C200.709 116.407 200.756 116.347 200.79 116.28C201.081 115.64 201.515 115.08 202.057 114.646C202.599 114.212 203.234 113.917 203.909 113.783C204.051 113.762 204.181 113.686 204.271 113.57C204.36 113.454 204.404 113.307 204.392 113.159C204.385 113.085 204.364 113.013 204.329 112.948C204.295 112.882 204.248 112.825 204.191 112.778C204.134 112.732 204.069 112.698 203.999 112.678C203.929 112.658 203.856 112.653 203.784 112.663C202.928 112.816 202.12 113.178 201.429 113.718C200.737 114.259 200.182 114.962 199.81 115.769C199.763 115.868 199.745 115.978 199.758 116.087C199.771 116.196 199.815 116.299 199.883 116.383C199.952 116.467 200.043 116.529 200.145 116.561C200.247 116.593 200.356 116.594 200.459 116.563Z" fill="#464547"/>
<path d="M218.302 112.167C218.372 112.17 218.441 112.157 218.505 112.13C218.569 112.103 218.627 112.063 218.675 112.011C218.776 111.904 218.833 111.762 218.833 111.613C218.833 111.465 218.776 111.322 218.675 111.216C218.086 110.562 217.356 110.059 216.543 109.748C215.731 109.438 214.858 109.329 213.997 109.429C213.925 109.443 213.856 109.471 213.795 109.512C213.734 109.553 213.682 109.606 213.641 109.668C213.599 109.73 213.571 109.8 213.556 109.873C213.541 109.947 213.541 110.022 213.555 110.096C213.585 110.239 213.668 110.365 213.786 110.447C213.905 110.529 214.049 110.561 214.19 110.536C214.869 110.458 215.557 110.545 216.197 110.792C216.837 111.038 217.412 111.436 217.874 111.954C217.926 112.02 217.991 112.073 218.065 112.11C218.139 112.147 218.22 112.166 218.302 112.167Z" fill="#464547"/>
<path d="M176.543 176.369C174.625 182.595 172.79 189.133 171.23 195.572C169.661 201.928 168.513 208.386 167.794 214.902L167.684 216.093C167.684 216.476 167.684 216.561 167.684 216.902C167.699 217.571 167.75 218.238 167.836 218.901C168.011 220.455 168.265 221.998 168.595 223.525C169.243 226.687 169.975 229.949 170.913 233.183C171.851 236.416 172.652 239.707 173.59 242.969L176.35 252.754L171.23 254.924C168.084 248.741 165.352 242.444 162.799 235.948C161.57 232.686 160.37 229.396 159.376 225.922C158.879 224.191 158.41 222.419 157.996 220.49C157.8 219.468 157.661 218.436 157.582 217.398C157.582 216.873 157.582 216.093 157.582 215.625V214.207C157.699 210.593 158.022 206.99 158.548 203.414C159.004 199.869 159.68 196.409 160.411 192.962C161.847 186.06 163.691 179.254 165.931 172.583L176.543 176.369Z" fill="#FFC3BD"/>
<path d="M170.844 159.535C166.152 160.953 160.508 177.617 160.508 177.617L178.724 191.005C178.724 191.005 185.375 177.135 183.402 170.895C181.346 164.4 176.212 157.862 170.844 159.535Z" fill="#6F2877"/>
<path opacity="0.4" d="M170.844 159.535C166.152 160.953 160.508 177.617 160.508 177.617L178.724 191.005C178.724 191.005 185.375 177.135 183.402 170.895C181.346 164.4 176.212 157.862 170.844 159.535Z" fill="white"/>
<path d="M145.673 470.592C145.897 470.511 146.101 470.38 146.271 470.208C146.44 470.037 146.57 469.829 146.652 469.599C146.732 469.452 146.774 469.286 146.774 469.117C146.774 468.948 146.732 468.782 146.652 468.635C145.824 467.387 141.643 467.486 141.132 467.5C141.08 467.501 141.028 467.518 140.984 467.548C140.94 467.578 140.905 467.621 140.884 467.67C140.857 467.715 140.843 467.767 140.843 467.819C140.843 467.872 140.857 467.923 140.884 467.968C141.974 469.089 144.017 470.918 145.452 470.635L145.673 470.592ZM141.795 468.011C143.465 468.011 145.7 468.252 146.142 468.918C146.18 468.983 146.2 469.056 146.2 469.131C146.2 469.206 146.18 469.28 146.142 469.344C146.081 469.515 145.98 469.668 145.847 469.789C145.715 469.911 145.555 469.996 145.383 470.039C144.624 470.237 143.299 469.429 141.795 468.011Z" fill="#6F2877"/>
<path d="M143.023 467.713C144.293 467.302 145.645 466.579 145.935 465.77C146.007 465.56 146.008 465.331 145.938 465.12C145.868 464.909 145.731 464.728 145.548 464.607C145.388 464.469 145.199 464.371 144.995 464.319C144.792 464.268 144.58 464.264 144.375 464.309C142.733 464.607 140.967 467.5 140.898 467.628C140.874 467.671 140.861 467.72 140.861 467.77C140.861 467.82 140.874 467.869 140.898 467.912C140.923 467.953 140.957 467.988 140.998 468.013C141.039 468.037 141.085 468.051 141.132 468.053C141.775 468.035 142.412 467.92 143.023 467.713ZM144.293 464.877H144.472C144.602 464.849 144.736 464.851 144.865 464.883C144.994 464.915 145.114 464.976 145.217 465.061C145.493 465.288 145.466 465.458 145.424 465.586C145.148 466.366 143.051 467.302 141.657 467.486C142.291 466.396 143.202 465.503 144.293 464.905V464.877Z" fill="#6F2877"/>
<path d="M222.07 499.126C223.042 499.208 224.014 498.954 224.83 498.403C225.019 498.227 225.164 498.005 225.25 497.758C225.337 497.51 225.363 497.245 225.326 496.985C225.316 496.831 225.267 496.683 225.185 496.554C225.103 496.425 224.99 496.319 224.857 496.247C223.477 495.453 218.854 497.864 218.33 498.134C218.279 498.155 218.236 498.191 218.205 498.238C218.175 498.285 218.159 498.34 218.159 498.396C218.159 498.452 218.175 498.507 218.205 498.554C218.236 498.601 218.279 498.637 218.33 498.658C219.558 498.944 220.811 499.101 222.07 499.126ZM224.126 496.673C224.301 496.661 224.477 496.696 224.636 496.772C224.691 496.803 224.736 496.848 224.768 496.903C224.799 496.958 224.816 497.02 224.816 497.084C224.842 497.247 224.827 497.414 224.774 497.57C224.721 497.726 224.631 497.866 224.512 497.978C223.808 498.63 221.904 498.743 219.351 498.304C220.841 497.486 222.456 496.935 224.126 496.673Z" fill="#6F2877"/>
<path d="M218.495 498.715H218.606C219.986 498.077 222.746 495.524 222.497 494.177C222.497 493.851 222.221 493.468 221.462 493.383C221.191 493.351 220.916 493.378 220.654 493.461C220.393 493.544 220.152 493.682 219.944 493.865C218.564 495.113 218.233 498.304 218.219 498.432C218.218 498.481 218.228 498.531 218.25 498.575C218.271 498.62 218.304 498.658 218.344 498.687C218.389 498.716 218.443 498.726 218.495 498.715ZM221.255 493.907H221.421C221.918 493.907 221.959 494.177 221.959 494.234C222.097 495.042 220.248 497.07 218.84 497.935C218.951 496.587 219.467 495.309 220.317 494.276C220.57 494.04 220.9 493.908 221.242 493.907H221.255Z" fill="#6F2877"/>
<path d="M178.448 228.63L177.261 232.885C177.095 233.211 177.482 233.552 178.02 233.552H226.32C226.748 233.552 227.093 233.339 227.12 233.069L227.548 228.815C227.548 228.517 227.203 228.262 226.748 228.262H179.22C179.072 228.25 178.922 228.278 178.787 228.342C178.652 228.407 178.535 228.506 178.448 228.63Z" fill="#464547"/>
<path d="M184.823 234.076H183.54C183.292 234.076 183.098 233.949 183.112 233.779L183.706 228.106C183.706 227.95 183.954 227.808 184.202 227.808H185.472C185.734 227.808 185.914 227.95 185.9 228.106L185.306 233.779C185.306 234.005 185.086 234.076 184.823 234.076Z" fill="#6F2877"/>
<path opacity="0.4" d="M184.823 234.076H183.54C183.292 234.076 183.098 233.949 183.112 233.779L183.706 228.106C183.706 227.95 183.954 227.808 184.202 227.808H185.472C185.734 227.808 185.914 227.95 185.9 228.106L185.306 233.779C185.306 234.005 185.086 234.076 184.823 234.076Z" fill="#464547"/>
<path d="M222.677 234.076H221.407C221.159 234.076 220.965 233.949 220.979 233.779L221.586 228.106C221.586 227.95 221.821 227.808 222.069 227.808H223.339C223.601 227.808 223.794 227.95 223.767 228.106L223.173 233.779C223.16 234.005 222.939 234.076 222.677 234.076Z" fill="#6F2877"/>
<path opacity="0.4" d="M222.677 234.076H221.407C221.159 234.076 220.965 233.949 220.979 233.779L221.586 228.106C221.586 227.95 221.821 227.808 222.069 227.808H223.339C223.601 227.808 223.794 227.95 223.767 228.106L223.173 233.779C223.16 234.005 222.939 234.076 222.677 234.076Z" fill="#464547"/>
<path d="M203.757 234.076H202.487C202.225 234.076 202.032 233.949 202.06 233.779L202.653 228.106C202.653 227.95 202.888 227.808 203.15 227.808H204.419C204.668 227.808 204.861 227.95 204.847 228.106L204.254 233.779C204.24 234.005 204.005 234.076 203.757 234.076Z" fill="#6F2877"/>
<path opacity="0.4" d="M203.757 234.076H202.487C202.225 234.076 202.032 233.949 202.06 233.779L202.653 228.106C202.653 227.95 202.888 227.808 203.15 227.808H204.419C204.668 227.808 204.861 227.95 204.847 228.106L204.254 233.779C204.24 234.005 204.005 234.076 203.757 234.076Z" fill="#464547"/>
<path d="M204.709 117.981L206.793 116.932C206.793 116.932 205.965 118.903 204.709 117.981Z" fill="#464547"/>
<path d="M175.964 251.152L185.858 258.952L174.391 261.547C174.391 261.547 169.519 255.874 171.203 251.194L175.964 251.152Z" fill="#FFC3BD"/>
<path d="M188.287 268.61L178.572 270.241L173.273 260.001L185.858 258.952L188.287 268.61Z" fill="#FFC3BD"/>
</svg>
