<svg width="34" height="34" viewBox="0 0 34 34" fill="none" xmlns="http://www.w3.org/2000/svg">
<g id="ic_facebook">
<path id="Vector" d="M20.1665 12.7251V17.3168H24.2832C24.5999 17.3168 24.7582 17.6335 24.7582 17.9501L24.1249 20.9585C24.1249 21.1168 23.8082 21.2751 23.6499 21.2751H20.1665V32.8335H15.4165V21.4335H12.7249C12.4082 21.4335 12.2499 21.2751 12.2499 20.9585V17.9501C12.2499 17.6335 12.4082 17.4751 12.7249 17.4751H15.4165V12.2501C15.4165 9.55846 17.4749 7.50012 20.1665 7.50012H24.4415C24.7582 7.50012 24.9165 7.65846 24.9165 7.97512V11.7751C24.9165 12.0918 24.7582 12.2501 24.4415 12.2501H20.6415C20.3249 12.2501 20.1665 12.4085 20.1665 12.7251Z" stroke="black" stroke-width="2" stroke-miterlimit="10" stroke-linecap="round"/>
<path id="Vector_2" d="M21.7499 32.8334H12.2499C4.33323 32.8334 1.16656 29.6667 1.16656 21.7501V12.2501C1.16656 4.33341 4.33323 1.16675 12.2499 1.16675H21.7499C29.6666 1.16675 32.8332 4.33341 32.8332 12.2501V21.7501C32.8332 29.6667 29.6666 32.8334 21.7499 32.8334Z" stroke="black" stroke-width="2" stroke-linecap="round" stroke-linejoin="round"/>
</g>
</svg>
