<svg width="32" height="32" viewBox="0 0 32 32" fill="none" xmlns="http://www.w3.org/2000/svg">
<g id="ic_instagram">
<path id="Vector" d="M11.4999 31H20.4999C27.9999 31 30.9999 28 30.9999 20.5V11.5C30.9999 4 27.9999 1 20.4999 1H11.4999C3.99994 1 0.999939 4 0.999939 11.5V20.5C0.999939 28 3.99994 31 11.4999 31Z" stroke="black" stroke-width="2" stroke-linecap="round" stroke-linejoin="round"/>
<path id="Vector_2" d="M15.9999 21.25C16.6894 21.25 17.3721 21.1142 18.009 20.8504C18.646 20.5865 19.2247 20.1998 19.7122 19.7123C20.1998 19.2248 20.5865 18.646 20.8503 18.0091C21.1141 17.3721 21.2499 16.6894 21.2499 16C21.2499 15.3106 21.1141 14.6279 20.8503 13.9909C20.5865 13.354 20.1998 12.7752 19.7122 12.2877C19.2247 11.8002 18.646 11.4135 18.009 11.1496C17.3721 10.8858 16.6894 10.75 15.9999 10.75C14.6076 10.75 13.2722 11.3031 12.2876 12.2877C11.3031 13.2723 10.7499 14.6076 10.7499 16C10.7499 17.3924 11.3031 18.7277 12.2876 19.7123C13.2722 20.6969 14.6076 21.25 15.9999 21.25Z" stroke="black" stroke-width="2" stroke-linecap="round" stroke-linejoin="round"/>
<path id="Vector_3" d="M24.4539 8.5H24.4719" stroke="black" stroke-width="2" stroke-linecap="round" stroke-linejoin="round"/>
</g>
</svg>
