<svg width="20" height="23" viewBox="0 0 20 23" fill="none" xmlns="http://www.w3.org/2000/svg">
<g id="login signup icons">
<path id="Vector" d="M5.52193 16.9857L7.49725 19.2861M16.6009 14.4251C15.7622 15.3994 14.7111 16.0885 13.5608 16.4181C12.4106 16.7478 11.2049 16.7054 10.0738 16.2955L6.02865 20.9965C5.73664 21.3466 5.16122 21.5566 4.74898 21.4866L2.87672 21.1865C2.25836 21.0865 1.68294 20.4064 1.58847 19.6862L1.33082 17.5058C1.2707 17.0257 1.46823 16.3555 1.75165 16.0155L5.78817 11.3145C5.1011 8.71397 5.63358 5.76337 7.40278 3.71295C9.93635 0.762349 14.0502 0.762349 16.5923 3.71295C19.1345 6.66356 19.1345 11.4745 16.6009 14.4251Z" stroke="#0A2647" stroke-opacity="0.25" stroke-width="1.5" stroke-miterlimit="10" stroke-linecap="round" stroke-linejoin="round"/>
<path id="Vector_2" d="M12.0577 10.4943C12.3993 10.4943 12.727 10.3362 12.9686 10.0548C13.2102 9.77347 13.3459 9.39186 13.3459 8.99396C13.3459 8.59605 13.2102 8.21444 12.9686 7.93308C12.727 7.65172 12.3993 7.49365 12.0577 7.49365C11.716 7.49365 11.3883 7.65172 11.1467 7.93308C10.9051 8.21444 10.7694 8.59605 10.7694 8.99396C10.7694 9.39186 10.9051 9.77347 11.1467 10.0548C11.3883 10.3362 11.716 10.4943 12.0577 10.4943Z" stroke="#0A2647" stroke-opacity="0.25" stroke-width="1.5" stroke-linecap="round" stroke-linejoin="round"/>
</g>
</svg>
