<svg width="23" height="23" viewBox="0 0 23 23" fill="none" xmlns="http://www.w3.org/2000/svg">
<g id="login signup icons">
<path id="Vector" d="M21.29 17.83C21.29 18.19 21.21 18.56 21.04 18.92C20.87 19.28 20.65 19.62 20.36 19.94C19.87 20.48 19.33 20.87 18.72 21.12C18.12 21.37 17.47 21.5 16.77 21.5C15.75 21.5 14.66 21.26 13.51 20.77C12.36 20.28 11.21 19.62 10.07 18.79C8.90812 17.9401 7.8117 17.0041 6.79001 15.99C5.77877 14.972 4.84611 13.8789 4.00001 12.72C3.18001 11.58 2.52001 10.44 2.04001 9.31C1.56001 8.17 1.32001 7.08 1.32001 6.04C1.32001 5.36 1.44001 4.71 1.68001 4.11C1.92001 3.5 2.30001 2.94 2.83001 2.44C3.47001 1.81 4.17001 1.5 4.91001 1.5C5.19001 1.5 5.47001 1.56 5.72001 1.68C5.98001 1.8 6.21001 1.98 6.39001 2.24L8.71001 5.51C8.89001 5.76 9.02001 5.99 9.11001 6.21C9.20001 6.42 9.25001 6.63 9.25001 6.82C9.25001 7.06 9.18001 7.3 9.04001 7.53C8.91001 7.76 8.72001 8 8.48001 8.24L7.72001 9.03C7.61001 9.14 7.56001 9.27 7.56001 9.43C7.56001 9.51 7.57001 9.58 7.59001 9.66C7.62001 9.74 7.65001 9.8 7.67001 9.86C7.85001 10.19 8.16001 10.62 8.60001 11.14C9.05001 11.66 9.53001 12.19 10.05 12.72C10.59 13.25 11.11 13.74 11.64 14.19C12.16 14.63 12.59 14.93 12.93 15.11C12.98 15.13 13.04 15.16 13.11 15.19C13.19 15.22 13.27 15.23 13.36 15.23C13.53 15.23 13.66 15.17 13.77 15.06L14.53 14.31C14.78 14.06 15.02 13.87 15.25 13.75C15.48 13.61 15.71 13.54 15.96 13.54C16.15 13.54 16.35 13.58 16.57 13.67C16.79 13.76 17.02 13.89 17.27 14.06L20.58 16.41C20.84 16.59 21.02 16.8 21.13 17.05C21.23 17.3 21.29 17.55 21.29 17.83Z" stroke="#6F2877" stroke-opacity="0.25" stroke-width="1.5" stroke-miterlimit="10"/>
</g>
</svg>
