<svg width="690" height="529" viewBox="0 0 690 529" fill="none" xmlns="http://www.w3.org/2000/svg">
<path d="M690 464.324H0V464.679H690V464.324Z" fill="white"/>
<path d="M620.862 487.143H575.156V487.497H620.862V487.143Z" fill="white"/>
<path d="M457.084 491.001H445.091V491.356H457.084V491.001Z" fill="white"/>
<path d="M573.776 473.982H547.294V474.336H573.776V473.982Z" fill="white"/>
<path d="M131.997 476.365H72.3948V476.719H131.997V476.365Z" fill="white"/>
<path d="M153.028 476.365H144.293V476.719H153.028V476.365Z" fill="white"/>
<path d="M310.707 482.35H181.429V482.705H310.707V482.35Z" fill="white"/>
<path d="M327.06 401.072H60.5957C58.5083 401.068 56.5076 400.213 55.0328 398.695C53.558 397.176 52.7297 395.119 52.7297 392.974V8.0271C52.7479 5.89414 53.5842 3.85468 55.057 2.35171C56.5298 0.848743 58.5202 0.00365387 60.5957 0H327.06C329.15 0 331.154 0.853181 332.632 2.37185C334.11 3.89053 334.94 5.95029 334.94 8.09801V392.974C334.94 395.121 334.11 397.181 332.632 398.7C331.154 400.218 329.15 401.072 327.06 401.072ZM60.5957 0.283644C58.5998 0.287401 56.6868 1.10488 55.2767 2.55666C53.8667 4.00843 53.0747 5.97586 53.0747 8.0271V392.974C53.0747 395.025 53.8667 396.992 55.2767 398.444C56.6868 399.896 58.5998 400.713 60.5957 400.717H327.06C329.057 400.713 330.972 399.896 332.384 398.445C333.796 396.993 334.591 395.026 334.595 392.974V8.0271C334.591 5.97456 333.796 4.00716 332.384 2.55579C330.972 1.10442 329.057 0.287393 327.06 0.283644H60.5957Z" fill="white"/>
<path d="M625.568 401.072H359.09C357.001 401.068 354.999 400.213 353.522 398.696C352.045 397.178 351.214 395.12 351.21 392.974V8.0271C351.232 5.89285 352.071 3.8534 353.546 2.35082C355.021 0.848247 357.013 0.00361403 359.09 0H625.568C627.641 0.0073811 629.628 0.854119 631.098 2.35669C632.567 3.85926 633.402 5.89659 633.42 8.0271V392.974C633.42 395.116 632.594 397.172 631.122 398.69C629.65 400.207 627.653 401.064 625.568 401.072ZM359.09 0.283644C357.093 0.287393 355.178 1.10442 353.766 2.55579C352.354 4.00716 351.559 5.97456 351.555 8.0271V392.974C351.559 395.026 352.354 396.993 353.766 398.445C355.178 399.896 357.093 400.713 359.09 400.717H625.568C627.565 400.713 629.479 399.896 630.892 398.445C632.304 396.993 633.099 395.026 633.103 392.974V8.0271C633.099 5.97456 632.304 4.00716 630.892 2.55579C629.479 1.10442 627.565 0.287393 625.568 0.283644H359.09Z" fill="white"/>
<path d="M334.429 168.597H138.497V463.827H334.429V168.597Z" fill="#F0F0F0"/>
<path d="M327.502 177.887H145.411V232.418H327.502V177.887Z" fill="#E0E0E0"/>
<path d="M155.761 186.708H145.411V232.403H155.761V186.708Z" fill="white"/>
<path d="M205.786 186.708H195.436V232.403H205.786V186.708Z" fill="white"/>
<path d="M262.561 185.561L252.362 187.368L259.915 232.399L270.114 230.592L262.561 185.561Z" fill="white"/>
<path d="M168.581 192.736H158.231V232.418H168.581V192.736Z" fill="white"/>
<path d="M192.358 192.736H182.008V232.418H192.358V192.736Z" fill="white"/>
<path d="M252.374 192.736H242.024V232.418H252.374V192.736Z" fill="white"/>
<path d="M219.38 191.359L209.277 193.667L217.654 232.403L227.757 230.095L219.38 191.359Z" fill="white"/>
<path d="M177.523 184.44H172.348V232.404H177.523V184.44Z" fill="white"/>
<path d="M239.044 184.44H233.869V232.404H239.044V184.44Z" fill="white"/>
<path d="M145.424 295.585H327.515V241.055L145.424 241.055V295.585Z" fill="#E0E0E0"/>
<path d="M317.152 295.571H327.502V249.876H317.152V295.571Z" fill="white"/>
<path d="M267.14 295.571H277.49V249.876H267.14V295.571Z" fill="white"/>
<path d="M202.815 293.754L213.014 295.561L220.567 250.53L210.367 248.723L202.815 293.754Z" fill="white"/>
<path d="M304.331 295.585H314.681V255.904H304.331V295.585Z" fill="white"/>
<path d="M280.568 295.585H290.918V255.904H280.568V295.585Z" fill="white"/>
<path d="M220.552 295.585H230.902V255.904H220.552V295.585Z" fill="white"/>
<path d="M245.202 293.267L255.306 295.575L263.683 256.838L253.579 254.531L245.202 293.267Z" fill="white"/>
<path d="M295.389 295.571H300.564V247.607H295.389V295.571Z" fill="white"/>
<path d="M233.882 295.571H239.057V247.607H233.882V295.571Z" fill="white"/>
<path d="M155.761 249.876H145.411V295.571H155.761V249.876Z" fill="white"/>
<path d="M168.581 255.889H158.231V295.571H168.581V255.889Z" fill="white"/>
<path d="M192.358 255.889H182.008V295.571H192.358V255.889Z" fill="white"/>
<path d="M177.523 247.607H172.348V295.571H177.523V247.607Z" fill="white"/>
<path d="M327.502 304.207H145.411V358.737H327.502V304.207Z" fill="#E0E0E0"/>
<path d="M260.282 313.028H249.932V358.723H260.282V313.028Z" fill="white"/>
<path d="M317.066 311.878L306.866 313.685L314.419 358.715L324.619 356.909L317.066 311.878Z" fill="white"/>
<path d="M223.077 319.056H212.727V358.738H223.077V319.056Z" fill="white"/>
<path d="M246.854 319.056H236.504V358.738H246.854V319.056Z" fill="white"/>
<path d="M306.871 319.056H296.521V358.738H306.871V319.056Z" fill="white"/>
<path d="M273.881 317.681L263.777 319.989L272.154 358.725L282.258 356.418L273.881 317.681Z" fill="white"/>
<path d="M232.019 310.76H226.844V358.724H232.019V310.76Z" fill="white"/>
<path d="M293.54 310.76H288.365V358.724H293.54V310.76Z" fill="white"/>
<path d="M198.059 311.889L187.859 313.695L195.412 358.726L205.612 356.919L198.059 311.889Z" fill="white"/>
<path d="M187.86 319.056H177.51V358.738H187.86V319.056Z" fill="white"/>
<path d="M154.875 317.68L144.772 319.988L153.149 358.725L163.252 356.417L154.875 317.68Z" fill="white"/>
<path d="M174.542 310.76H169.367V358.724H174.542V310.76Z" fill="white"/>
<path d="M104.687 464.594H138.497L138.497 168.598H104.687L104.687 464.594Z" fill="#E0E0E0"/>
<path d="M449.107 456.864H420.389L435.487 330.444C435.849 327.803 437.111 325.38 439.05 323.606C440.988 321.832 443.476 320.823 446.071 320.758H571.32L552.952 456.808L449.107 456.864Z" fill="#F5F5F5"/>
<path d="M540.187 456.864H568.905L584.016 330.444C584.2 329.229 584.123 327.987 583.788 326.806C583.454 325.625 582.872 324.534 582.082 323.61C581.292 322.686 580.314 321.951 579.217 321.459C578.121 320.966 576.932 320.727 575.736 320.758H565.869C563.279 320.839 560.8 321.854 558.865 323.625C556.93 325.396 555.662 327.81 555.284 330.444L540.187 456.864Z" fill="#F0F0F0"/>
<path d="M529.616 456.666L534.819 395.541C534.929 394.215 535.478 392.968 536.374 392.008C537.271 391.047 538.461 390.432 539.746 390.265L541.885 389.981C543.611 389.759 545.211 388.933 546.415 387.642C547.618 386.351 548.353 384.673 548.495 382.89L549.447 371.743C549.541 370.662 549.415 369.574 549.077 368.546C548.738 367.518 548.196 366.574 547.483 365.773C546.77 364.973 545.903 364.333 544.937 363.896C543.971 363.459 542.927 363.234 541.871 363.234H589.867C590.923 363.234 591.967 363.459 592.933 363.896C593.9 364.333 594.767 364.973 595.479 365.773C596.192 366.574 596.735 367.518 597.073 368.546C597.411 369.574 597.537 370.662 597.443 371.743L596.491 382.89C596.349 384.673 595.615 386.351 594.411 387.642C593.207 388.933 591.608 389.759 589.881 389.981L587.742 390.265C586.458 390.435 585.27 391.051 584.374 392.01C583.477 392.97 582.928 394.216 582.815 395.541L577.613 456.666C577.427 458.814 576.465 460.813 574.918 462.27C573.37 463.726 571.348 464.535 569.25 464.537H521.254C523.352 464.535 525.374 463.726 526.921 462.27C528.469 460.813 529.43 458.814 529.616 456.666Z" fill="#E6E6E6"/>
<path d="M397.523 380.294C397.142 375.655 395.08 371.331 391.745 368.179C388.41 365.027 384.045 363.277 379.514 363.276H421.3C425.819 363.295 430.167 365.053 433.488 368.203C436.809 371.353 438.861 375.667 439.24 380.294L443.38 428.741H401.649L397.523 380.294Z" fill="#E6E6E6"/>
<path d="M360.953 363.333H379.5C384.031 363.335 388.396 365.085 391.731 368.236C395.067 371.388 397.129 375.712 397.509 380.352L401.649 428.798H501.175L505.315 380.352C505.691 375.723 507.742 371.407 511.063 368.257C514.385 365.106 518.735 363.349 523.255 363.333H541.816C542.871 363.333 543.916 363.559 544.882 363.996C545.848 364.433 546.715 365.072 547.428 365.873C548.141 366.673 548.683 367.617 549.021 368.645C549.36 369.673 549.486 370.762 549.392 371.843L548.44 382.99C548.298 384.772 547.563 386.45 546.359 387.742C545.156 389.033 543.556 389.859 541.829 390.081L539.69 390.365C538.406 390.532 537.216 391.147 536.319 392.107C535.423 393.067 534.874 394.314 534.764 395.64L529.616 456.666C529.43 458.814 528.469 460.813 526.921 462.27C525.374 463.726 523.352 464.535 521.254 464.537H381.57C379.472 464.535 377.45 463.726 375.902 462.27C374.355 460.813 373.393 458.814 373.207 456.666L368.005 395.541C367.89 394.217 367.339 392.973 366.444 392.013C365.548 391.054 364.361 390.438 363.078 390.265L360.939 389.982C359.212 389.758 357.612 388.931 356.406 387.641C355.201 386.35 354.462 384.673 354.315 382.891L353.377 371.744C353.297 370.671 353.433 369.593 353.778 368.577C354.122 367.561 354.667 366.629 355.379 365.839C356.09 365.05 356.952 364.42 357.911 363.988C358.87 363.557 359.906 363.334 360.953 363.333Z" fill="#F0F0F0"/>
<path d="M140.981 153.848C140.981 153.848 139.449 143.481 146.804 136.83C154.16 130.178 153.511 126.236 151.4 125.725C149.288 125.214 147.37 131.852 144.141 133.681C144.141 133.681 144.031 124.208 147.315 120.733C150.599 117.258 152.324 108.253 149.192 108.097C146.059 107.941 145.756 113.429 145.052 117.329C144.348 121.229 140.912 126.704 140.912 126.704C140.912 126.704 140.236 118.194 138.152 114.748C136.068 111.302 141.685 103.289 139.532 99.8142C137.379 96.3396 133.474 102.963 133.791 110.437C134.108 117.911 138.966 125.881 137.834 133.681C137.834 133.681 135.695 128.193 133.777 127.696C131.859 127.2 129.913 123.584 128.63 122.236C127.346 120.889 125.718 125.541 128.63 129.852C131.542 134.163 138.966 145.722 137.834 155.054L140.981 153.848Z" fill="#E6E6E6"/>
<path d="M145.369 149.125L147.784 164.655C147.958 165.782 147.891 166.935 147.59 168.034C147.288 169.132 146.758 170.151 146.037 171.019C145.316 171.887 144.42 172.584 143.411 173.062C142.402 173.54 141.305 173.788 140.194 173.788H137.627C136.517 173.788 135.419 173.54 134.41 173.062C133.402 172.584 132.506 171.887 131.785 171.019C131.063 170.151 130.533 169.132 130.232 168.034C129.93 166.935 129.864 165.782 130.037 164.655L132.48 149.125H145.369Z" fill="#E6E6E6"/>
<path d="M289.869 170.754H297.362V137.638H289.869V170.754Z" fill="white"/>
<path d="M253.63 170.754H261.124V137.638H253.63V170.754Z" fill="white"/>
<path d="M207.02 169.437L214.404 170.745L219.878 138.111L212.493 136.803L207.02 169.437Z" fill="white"/>
<path d="M280.582 170.739H288.075V141.992H280.582V170.739Z" fill="white"/>
<path d="M263.359 170.739H270.853V141.992H263.359V170.739Z" fill="white"/>
<path d="M219.862 170.739H227.355V141.992H219.862V170.739Z" fill="white"/>
<path d="M237.733 169.071L245.048 170.742L251.117 142.68L243.802 141.009L237.733 169.071Z" fill="white"/>
<path d="M274.096 170.754H277.849V135.993H274.096V170.754Z" fill="white"/>
<path d="M229.508 170.754H233.261V135.993H229.508V170.754Z" fill="white"/>
<path d="M202.791 144.46H166.262V170.371H202.791V144.46Z" fill="white"/>
<path d="M328.067 155.068H297.473V174.412H328.067V155.068Z" fill="white"/>
<path d="M320.919 138.064H305.615V157.408H320.919V138.064Z" fill="white"/>
<path d="M576.578 112.465H540.187V268.298H576.578V112.465Z" fill="#E0E0E0"/>
<path d="M436.577 268.724H572.672V112.479L436.577 112.479V268.724Z" fill="#E0E0E0"/>
<path d="M432.188 268.724H573.39V112.479L432.188 112.479V268.724Z" fill="#F0F0F0"/>
<path d="M438.233 261.533H567.594V117.442L438.233 117.442V261.533Z" fill="white"/>
<path d="M438.219 261.533H440.62V117.442H438.219V261.533Z" fill="#E0E0E0"/>
<path d="M440.234 221.072V224.958H567.939V221.072H440.234Z" fill="#E0E0E0"/>
<path d="M438.219 221.057L569.609 221.057V214.534L438.219 214.534V221.057Z" fill="#F0F0F0"/>
<path d="M345 528.37C492.774 528.37 612.568 521.183 612.568 512.316C612.568 503.45 492.774 496.262 345 496.262C197.226 496.262 77.4318 503.45 77.4318 512.316C77.4318 521.183 197.226 528.37 345 528.37Z" fill="#F5F5F5"/>
<path d="M444.291 138.73H197.395C191.816 138.73 187.294 143.378 187.294 149.112V447.873C187.294 453.606 191.816 458.254 197.395 458.254H444.291C449.87 458.254 454.393 453.606 454.393 447.873V149.112C454.393 143.378 449.87 138.73 444.291 138.73Z" fill="#6F2877"/>
<path opacity="0.6" d="M444.291 138.73H197.395C191.816 138.73 187.294 143.378 187.294 149.112V447.873C187.294 453.606 191.816 458.254 197.395 458.254H444.291C449.87 458.254 454.393 453.606 454.393 447.873V149.112C454.393 143.378 449.87 138.73 444.291 138.73Z" fill="white"/>
<path d="M411.13 285.274H230.57V317.042H411.13V285.274Z" fill="white"/>
<g opacity="0.4">
<path d="M246.716 304.251V305.088H240.451V295.983H246.523V296.805H241.39V300.053H245.971V300.861H241.39V304.251H246.716Z" fill="#464547"/>
<path d="M247.972 301.159H251.298V301.953H247.972V301.159Z" fill="#464547"/>
<path d="M264.284 301.117V305.088H263.387V301.202C263.387 299.784 262.683 299.018 261.482 299.018C261.171 299.003 260.861 299.058 260.572 299.18C260.284 299.301 260.025 299.486 259.813 299.721C259.602 299.956 259.443 300.235 259.347 300.54C259.252 300.845 259.222 301.168 259.261 301.485V305.088H258.35V301.202C258.35 299.784 257.646 299.018 256.432 299.018C256.12 299.003 255.81 299.058 255.521 299.18C255.233 299.301 254.974 299.486 254.762 299.721C254.551 299.956 254.392 300.235 254.296 300.54C254.201 300.845 254.171 301.168 254.21 301.485V305.088H253.299V298.238H254.168V299.486C254.429 299.068 254.792 298.727 255.22 298.498C255.649 298.269 256.128 298.16 256.611 298.181C257.099 298.139 257.587 298.252 258.01 298.506C258.432 298.76 258.768 299.142 258.971 299.599C259.247 299.142 259.637 298.77 260.1 298.52C260.564 298.271 261.084 298.154 261.607 298.181C261.981 298.152 262.357 298.209 262.708 298.349C263.058 298.489 263.373 298.708 263.63 298.99C263.887 299.271 264.079 299.609 264.192 299.977C264.305 300.345 264.337 300.735 264.284 301.117Z" fill="#464547"/>
<path d="M271.763 300.833V305.087H270.894V304.009C270.647 304.393 270.304 304.701 269.901 304.901C269.497 305.1 269.049 305.184 268.603 305.144C267.099 305.144 266.174 304.336 266.174 303.158C266.174 301.981 266.837 301.215 268.741 301.215H270.853V300.804C270.853 299.627 270.218 298.989 268.976 298.989C268.165 298.979 267.378 299.266 266.754 299.797L266.354 299.116C267.134 298.472 268.114 298.139 269.114 298.18C269.466 298.136 269.823 298.174 270.16 298.291C270.496 298.407 270.802 298.6 271.057 298.854C271.311 299.109 271.506 299.419 271.629 299.761C271.751 300.103 271.797 300.469 271.763 300.833ZM270.853 303.031V301.91H268.769C267.485 301.91 267.058 302.421 267.058 303.13C267.058 303.839 267.679 304.421 268.741 304.421C269.191 304.451 269.639 304.333 270.019 304.083C270.399 303.833 270.691 303.464 270.853 303.031Z" fill="#464547"/>
<path d="M273.999 296.082C274.001 295.994 274.019 295.908 274.054 295.828C274.088 295.748 274.137 295.675 274.199 295.615C274.26 295.554 274.333 295.506 274.412 295.475C274.492 295.443 274.576 295.427 274.662 295.429C274.745 295.427 274.828 295.442 274.906 295.474C274.983 295.505 275.054 295.551 275.114 295.61C275.175 295.67 275.223 295.741 275.257 295.819C275.29 295.897 275.308 295.982 275.31 296.068C275.312 296.156 275.297 296.244 275.265 296.327C275.233 296.41 275.186 296.485 275.125 296.548C275.065 296.611 274.993 296.662 274.913 296.696C274.833 296.731 274.748 296.748 274.662 296.748C274.575 296.75 274.489 296.734 274.409 296.702C274.329 296.669 274.256 296.62 274.194 296.558C274.132 296.496 274.083 296.422 274.05 296.34C274.016 296.258 273.999 296.17 273.999 296.082ZM274.206 298.237H275.103V305.087H274.206V298.237Z" fill="#464547"/>
<path d="M277.601 295.429H278.498V305.087H277.601V295.429Z" fill="#464547"/>
</g>
<path d="M411.13 328.672H230.57V360.44H411.13V328.672Z" fill="white"/>
<g opacity="0.4">
<path d="M247.379 342.543C247.379 344.486 245.999 345.663 243.763 345.663H241.39V348.499H240.451V339.394H243.763C246.013 339.423 247.379 340.6 247.379 342.543ZM246.44 342.543C246.44 341.125 245.516 340.259 243.68 340.259H241.334V344.812H243.68C245.516 344.812 246.44 343.975 246.44 342.543Z" fill="#464547"/>
<path d="M254.182 344.287V348.542H253.313V347.464C253.066 347.847 252.723 348.155 252.319 348.355C251.916 348.555 251.468 348.639 251.022 348.598C249.518 348.598 248.593 347.79 248.593 346.599C248.593 345.407 249.256 344.627 251.16 344.627H253.271V344.202C253.271 343.039 252.623 342.401 251.381 342.401C250.574 342.39 249.791 342.677 249.173 343.209L248.759 342.514C249.545 341.884 250.522 341.557 251.519 341.592C251.876 341.545 252.239 341.581 252.58 341.699C252.922 341.817 253.232 342.013 253.489 342.273C253.746 342.533 253.941 342.849 254.062 343.198C254.182 343.547 254.223 343.919 254.182 344.287ZM253.285 346.471V345.351H251.16C249.877 345.351 249.463 345.875 249.463 346.584C249.463 347.293 250.07 347.861 251.146 347.861C251.601 347.895 252.054 347.779 252.439 347.529C252.824 347.278 253.121 346.908 253.285 346.471Z" fill="#464547"/>
<path d="M255.7 347.747L256.1 347.024C256.796 347.523 257.625 347.791 258.474 347.79C259.73 347.79 260.254 347.35 260.254 346.669C260.254 344.882 255.935 346.286 255.935 343.592C255.935 342.471 256.873 341.635 258.571 341.635C259.399 341.627 260.213 341.847 260.93 342.273L260.53 343.01C259.95 342.616 259.266 342.414 258.571 342.429C257.37 342.429 256.832 342.911 256.832 343.563C256.832 345.407 261.151 344.017 261.151 346.641C261.151 347.832 260.144 348.598 258.391 348.598C257.428 348.624 256.483 348.325 255.7 347.747Z" fill="#464547"/>
<path d="M261.883 347.747L262.297 347.024C262.985 347.529 263.811 347.797 264.656 347.79C265.926 347.79 266.437 347.35 266.437 346.67C266.437 344.883 262.131 346.287 262.131 343.592C262.131 342.472 263.069 341.635 264.753 341.635C265.581 341.624 266.397 341.844 267.113 342.273L266.726 343.011C266.14 342.618 265.453 342.415 264.753 342.429C263.552 342.429 263.028 342.911 263.028 343.564C263.028 345.407 267.347 344.018 267.347 346.641C267.347 347.833 266.326 348.598 264.587 348.598C263.62 348.622 262.671 348.323 261.883 347.747Z" fill="#464547"/>
<path d="M278.636 341.692L276.124 348.528H275.282L273.24 342.926L271.142 348.528H270.301L267.72 341.692H268.576L270.673 347.507L272.812 341.692H273.585L275.71 347.507L277.822 341.692H278.636Z" fill="#464547"/>
<path d="M279.133 345.11C279.133 344.42 279.332 343.745 279.705 343.171C280.078 342.598 280.608 342.15 281.228 341.886C281.849 341.622 282.531 341.553 283.19 341.688C283.848 341.823 284.453 342.155 284.928 342.643C285.403 343.131 285.726 343.752 285.857 344.429C285.988 345.106 285.921 345.807 285.664 346.445C285.407 347.082 284.972 347.627 284.414 348.01C283.855 348.394 283.199 348.598 282.527 348.598C282.077 348.614 281.629 348.535 281.21 348.365C280.791 348.195 280.411 347.939 280.093 347.612C279.774 347.285 279.525 346.894 279.36 346.463C279.195 346.033 279.117 345.572 279.133 345.11ZM284.998 345.11C284.976 344.61 284.812 344.127 284.525 343.722C284.239 343.317 283.843 343.008 283.387 342.832C282.931 342.657 282.435 342.623 281.96 342.735C281.485 342.847 281.053 343.1 280.717 343.463C280.381 343.825 280.157 344.281 280.071 344.774C279.985 345.267 280.042 345.775 280.235 346.234C280.428 346.694 280.748 347.085 281.156 347.359C281.563 347.633 282.04 347.778 282.527 347.776C282.864 347.783 283.199 347.717 283.51 347.584C283.821 347.451 284.101 347.252 284.334 347.001C284.566 346.751 284.745 346.453 284.859 346.127C284.974 345.802 285.021 345.455 284.998 345.11Z" fill="#464547"/>
<path d="M291.097 341.635V342.528H290.877C290.561 342.513 290.246 342.569 289.953 342.693C289.661 342.817 289.399 343.005 289.186 343.245C288.972 343.484 288.813 343.769 288.719 344.079C288.625 344.389 288.598 344.717 288.641 345.039V348.528H287.744V341.692H288.6V343.025C288.832 342.562 289.195 342.183 289.64 341.935C290.086 341.687 290.593 341.583 291.097 341.635Z" fill="#464547"/>
<path d="M298.729 338.954V348.598H297.873V347.251C297.605 347.699 297.227 348.067 296.776 348.316C296.325 348.565 295.818 348.687 295.306 348.669C294.445 348.613 293.637 348.221 293.047 347.574C292.456 346.928 292.128 346.074 292.128 345.187C292.128 344.301 292.456 343.447 293.047 342.8C293.637 342.154 294.445 341.762 295.306 341.706C295.811 341.694 296.31 341.819 296.753 342.068C297.197 342.317 297.568 342.681 297.832 343.124V338.954H298.729ZM297.845 345.18C297.824 344.68 297.66 344.198 297.373 343.793C297.087 343.388 296.691 343.079 296.235 342.903C295.779 342.728 295.282 342.694 294.808 342.806C294.333 342.918 293.901 343.171 293.565 343.534C293.229 343.896 293.004 344.352 292.919 344.845C292.833 345.338 292.89 345.845 293.083 346.305C293.276 346.765 293.596 347.156 294.004 347.43C294.411 347.704 294.888 347.849 295.375 347.847C295.718 347.854 296.059 347.787 296.375 347.649C296.691 347.512 296.975 347.307 297.209 347.048C297.442 346.79 297.62 346.483 297.729 346.149C297.839 345.815 297.879 345.46 297.845 345.109V345.18Z" fill="#464547"/>
</g>
<path opacity="0.2" d="M411.13 392.847H230.57V424.615H411.13V392.847Z" fill="#464547"/>
<g opacity="0.5">
<path d="M274.482 378.253H271.529L270.894 379.671H270.314L272.729 374.239H273.281L275.696 379.671H275.117L274.482 378.253ZM274.275 377.785L273.005 374.863L271.736 377.785H274.275Z" fill="#464547"/>
<path d="M276.469 373.941H277.007V379.699H276.469V373.941Z" fill="#464547"/>
<path d="M280.513 375.587V376.126H280.375C280.182 376.109 279.988 376.137 279.807 376.208C279.627 376.278 279.464 376.39 279.331 376.535C279.199 376.679 279.099 376.853 279.041 377.042C278.983 377.232 278.967 377.432 278.995 377.629V379.714H278.456V375.629H278.981V376.424C279.119 376.137 279.341 375.903 279.616 375.753C279.891 375.603 280.204 375.545 280.513 375.587Z" fill="#464547"/>
<path d="M284.901 377.828H281.52C281.531 378.026 281.579 378.221 281.664 378.4C281.748 378.579 281.866 378.74 282.011 378.872C282.156 379.004 282.325 379.105 282.509 379.169C282.692 379.233 282.886 379.259 283.079 379.246C283.309 379.254 283.537 379.211 283.749 379.121C283.961 379.03 284.151 378.894 284.308 378.721L284.597 379.076C284.312 379.383 283.945 379.598 283.541 379.692C283.138 379.785 282.717 379.755 282.33 379.603C281.944 379.451 281.61 379.186 281.37 378.84C281.13 378.494 280.995 378.082 280.982 377.657C280.969 377.388 281.009 377.118 281.101 376.866C281.194 376.613 281.335 376.383 281.518 376.188C281.7 375.994 281.919 375.841 282.162 375.737C282.404 375.634 282.665 375.583 282.928 375.587C283.19 375.58 283.451 375.63 283.694 375.733C283.937 375.836 284.156 375.99 284.338 376.184C284.519 376.379 284.66 376.611 284.75 376.864C284.839 377.118 284.877 377.388 284.86 377.657C284.86 377.657 284.901 377.771 284.901 377.828ZM281.575 377.416H284.335C284.335 377.04 284.19 376.679 283.931 376.413C283.672 376.147 283.321 375.998 282.955 375.998C282.589 375.998 282.238 376.147 281.979 376.413C281.721 376.679 281.575 377.04 281.575 377.416Z" fill="#464547"/>
<path d="M288.889 377.246V379.77H288.42V379.132C288.274 379.365 288.067 379.552 287.824 379.672C287.58 379.793 287.309 379.841 287.04 379.812C286.143 379.812 285.66 379.33 285.66 378.621C285.66 377.912 286.046 377.458 287.192 377.458H288.42V377.217C288.42 376.522 288.034 376.139 287.288 376.139C286.786 376.12 286.295 376.292 285.908 376.622L285.674 376.21C286.131 375.835 286.703 375.639 287.288 375.657C287.502 375.619 287.721 375.634 287.928 375.7C288.135 375.765 288.324 375.88 288.48 376.035C288.636 376.189 288.754 376.38 288.825 376.59C288.897 376.8 288.918 377.025 288.889 377.246ZM288.365 378.55V377.87H287.109C286.336 377.87 286.088 378.182 286.088 378.607C286.088 379.032 286.46 379.373 287.095 379.373C287.381 379.395 287.666 379.32 287.906 379.158C288.146 378.997 288.326 378.758 288.42 378.479L288.365 378.55Z" fill="#464547"/>
<path d="M293.94 373.941V379.699H293.429V378.891C293.273 379.162 293.048 379.384 292.778 379.534C292.508 379.684 292.204 379.755 291.898 379.742C291.39 379.699 290.917 379.461 290.572 379.076C290.228 378.691 290.036 378.187 290.036 377.664C290.036 377.141 290.228 376.637 290.572 376.252C290.917 375.867 291.39 375.63 291.898 375.586C292.197 375.578 292.493 375.648 292.758 375.789C293.024 375.931 293.25 376.139 293.416 376.395V373.941H293.94ZM293.416 377.657C293.402 377.36 293.304 377.074 293.134 376.834C292.964 376.594 292.729 376.411 292.458 376.307C292.187 376.203 291.893 376.183 291.611 376.249C291.329 376.315 291.073 376.465 290.873 376.68C290.673 376.895 290.539 377.165 290.488 377.457C290.436 377.749 290.469 378.051 290.583 378.324C290.696 378.597 290.885 378.83 291.126 378.994C291.367 379.158 291.65 379.245 291.939 379.246C292.145 379.258 292.35 379.226 292.543 379.15C292.735 379.074 292.91 378.958 293.054 378.807C293.199 378.657 293.312 378.477 293.383 378.278C293.455 378.08 293.485 377.868 293.471 377.657H293.416Z" fill="#464547"/>
<path d="M298.839 375.615L296.852 380.195C296.521 380.99 296.093 381.245 295.472 381.245C295.116 381.255 294.769 381.123 294.506 380.876L294.754 380.465C294.948 380.664 295.211 380.777 295.486 380.777C295.844 380.777 296.079 380.607 296.314 380.082L296.479 379.699L294.699 375.615H295.32L296.824 379.089L298.315 375.615H298.839Z" fill="#464547"/>
<path d="M304.58 377.246V379.77H304.069V379.132C303.923 379.365 303.716 379.552 303.473 379.672C303.229 379.793 302.958 379.841 302.689 379.812C301.792 379.812 301.309 379.33 301.309 378.621C301.309 377.912 301.696 377.458 302.841 377.458H304.097V377.217C304.097 376.522 303.724 376.139 302.979 376.139C302.477 376.12 301.986 376.292 301.599 376.622L301.351 376.21C301.814 375.835 302.39 375.639 302.979 375.657C303.193 375.619 303.412 375.634 303.619 375.7C303.826 375.765 304.015 375.88 304.171 376.035C304.327 376.189 304.445 376.38 304.516 376.59C304.587 376.8 304.609 377.025 304.58 377.246ZM304.042 378.55V377.87H302.8C302.027 377.87 301.779 378.182 301.779 378.607C301.779 379.032 302.151 379.373 302.786 379.373C303.061 379.384 303.333 379.303 303.559 379.142C303.786 378.981 303.955 378.748 304.042 378.479V378.55Z" fill="#464547"/>
<path d="M314.64 377.332V379.7H314.116V377.388C314.116 376.523 313.688 376.084 312.97 376.084C312.785 376.069 312.599 376.095 312.425 376.161C312.251 376.227 312.093 376.331 311.962 376.466C311.831 376.601 311.73 376.763 311.666 376.942C311.601 377.121 311.576 377.312 311.59 377.502V379.643H311.066V377.388C311.066 376.523 310.638 376.084 309.907 376.084C309.722 376.069 309.536 376.095 309.362 376.161C309.188 376.227 309.03 376.331 308.899 376.466C308.767 376.601 308.666 376.763 308.602 376.942C308.538 377.121 308.512 377.312 308.527 377.502V379.643H307.988V375.559H308.499V376.31C308.651 376.056 308.868 375.85 309.125 375.712C309.383 375.575 309.672 375.512 309.962 375.53C310.251 375.507 310.54 375.578 310.788 375.734C311.036 375.889 311.23 376.121 311.342 376.396C311.502 376.118 311.734 375.89 312.011 375.738C312.288 375.585 312.601 375.514 312.915 375.53C313.153 375.487 313.399 375.503 313.629 375.579C313.86 375.654 314.07 375.786 314.239 375.964C314.409 376.141 314.535 376.358 314.604 376.597C314.674 376.835 314.686 377.087 314.64 377.332Z" fill="#464547"/>
<path d="M319.525 377.828H316.199C316.228 378.229 316.409 378.603 316.703 378.868C316.997 379.134 317.382 379.269 317.773 379.246C318 379.255 318.227 379.213 318.436 379.122C318.646 379.031 318.834 378.895 318.987 378.721L319.291 379.076C319.097 379.293 318.86 379.465 318.595 379.58C318.331 379.695 318.046 379.751 317.759 379.742C317.485 379.76 317.211 379.719 316.954 379.622C316.697 379.524 316.463 379.372 316.266 379.176C316.07 378.979 315.916 378.743 315.814 378.481C315.712 378.22 315.665 377.939 315.675 377.658C315.675 377.131 315.878 376.626 316.241 376.254C316.603 375.881 317.095 375.672 317.607 375.672C318.119 375.672 318.611 375.881 318.973 376.254C319.335 376.626 319.539 377.131 319.539 377.658C319.539 377.658 319.525 377.771 319.525 377.828ZM316.199 377.416H319.028C319.028 377.031 318.879 376.661 318.614 376.389C318.349 376.116 317.989 375.963 317.614 375.963C317.239 375.963 316.879 376.116 316.614 376.389C316.348 376.661 316.199 377.031 316.199 377.416Z" fill="#464547"/>
<path d="M327.198 377.332V379.7H326.66V377.388C326.66 376.523 326.246 376.084 325.528 376.084C325.343 376.066 325.156 376.091 324.981 376.156C324.806 376.221 324.647 376.325 324.515 376.46C324.383 376.596 324.282 376.759 324.219 376.939C324.155 377.119 324.131 377.311 324.148 377.502V379.643H323.61V377.388C323.61 376.523 323.196 376.084 322.465 376.084C322.279 376.066 322.092 376.091 321.917 376.156C321.742 376.221 321.583 376.325 321.451 376.46C321.32 376.596 321.218 376.759 321.155 376.939C321.092 377.119 321.068 377.311 321.085 377.502V379.643H320.547V375.559H321.057V376.31C321.208 376.055 321.424 375.848 321.682 375.71C321.94 375.573 322.23 375.51 322.52 375.53C322.809 375.507 323.098 375.578 323.346 375.734C323.594 375.889 323.788 376.121 323.9 376.396C324.061 376.118 324.292 375.89 324.569 375.738C324.846 375.585 325.159 375.514 325.473 375.53C325.712 375.487 325.957 375.503 326.187 375.579C326.418 375.654 326.628 375.786 326.798 375.964C326.967 376.141 327.093 376.358 327.162 376.597C327.232 376.835 327.245 377.087 327.198 377.332Z" fill="#464547"/>
<path d="M332.69 377.657C332.704 377.93 332.662 378.202 332.569 378.458C332.475 378.713 332.331 378.946 332.146 379.141C331.961 379.337 331.738 379.491 331.492 379.595C331.246 379.698 330.983 379.748 330.717 379.742C330.411 379.755 330.107 379.684 329.837 379.534C329.567 379.384 329.342 379.162 329.185 378.891V379.699H328.661V373.941H329.199V376.395C329.364 376.138 329.59 375.929 329.856 375.788C330.121 375.646 330.418 375.577 330.717 375.586C330.982 375.578 331.246 375.627 331.491 375.728C331.737 375.83 331.96 375.983 332.145 376.178C332.331 376.372 332.475 376.604 332.569 376.859C332.662 377.113 332.704 377.385 332.69 377.657ZM332.152 377.657C332.139 377.36 332.041 377.074 331.871 376.834C331.7 376.594 331.465 376.411 331.195 376.307C330.924 376.203 330.629 376.183 330.348 376.249C330.066 376.315 329.809 376.465 329.61 376.68C329.41 376.895 329.276 377.165 329.224 377.457C329.173 377.749 329.206 378.051 329.319 378.324C329.433 378.597 329.622 378.83 329.863 378.994C330.104 379.158 330.387 379.245 330.676 379.246C330.877 379.25 331.076 379.211 331.262 379.132C331.448 379.053 331.615 378.935 331.754 378.785C331.893 378.636 332 378.459 332.069 378.264C332.137 378.07 332.166 377.863 332.152 377.657Z" fill="#464547"/>
<path d="M337.258 377.828H333.96C333.971 378.026 334.019 378.221 334.104 378.4C334.188 378.58 334.306 378.74 334.451 378.872C334.596 379.004 334.766 379.105 334.949 379.169C335.132 379.233 335.326 379.259 335.519 379.246C335.749 379.246 335.975 379.193 336.183 379.093C336.391 378.992 336.574 378.846 336.72 378.664L337.024 379.019C336.738 379.327 336.371 379.541 335.968 379.635C335.564 379.729 335.143 379.698 334.757 379.546C334.37 379.395 334.036 379.129 333.796 378.783C333.556 378.437 333.421 378.026 333.408 377.601C333.395 377.331 333.436 377.062 333.528 376.809C333.62 376.556 333.762 376.326 333.944 376.132C334.126 375.938 334.346 375.784 334.588 375.681C334.831 375.577 335.091 375.526 335.354 375.53C335.616 375.523 335.876 375.573 336.118 375.676C336.361 375.779 336.579 375.933 336.76 376.128C336.94 376.323 337.079 376.555 337.168 376.809C337.256 377.062 337.291 377.332 337.272 377.601L337.258 377.828ZM333.932 377.416H336.692C336.692 377.04 336.547 376.679 336.288 376.414C336.029 376.148 335.678 375.998 335.312 375.998C334.946 375.998 334.595 376.148 334.337 376.414C334.078 376.679 333.932 377.04 333.932 377.416Z" fill="#464547"/>
<path d="M340.363 375.587V376.126H340.239C340.046 376.109 339.853 376.137 339.672 376.208C339.491 376.278 339.328 376.39 339.196 376.535C339.063 376.679 338.964 376.853 338.906 377.042C338.847 377.232 338.831 377.433 338.859 377.629V379.714H338.321V375.63H338.832V376.424C338.972 376.139 339.194 375.905 339.468 375.756C339.742 375.606 340.055 375.547 340.363 375.587Z" fill="#464547"/>
<path d="M343.841 375.657C343.841 375.09 343.399 374.707 342.626 374.707C342.355 374.691 342.083 374.739 341.832 374.847C341.581 374.956 341.357 375.121 341.177 375.331L340.777 375.019C341.012 374.746 341.305 374.532 341.632 374.392C341.96 374.252 342.314 374.19 342.668 374.211C343.73 374.211 344.407 374.735 344.407 375.629C344.407 376.948 343.027 377.047 343.027 378.125H342.461C342.461 376.792 343.841 376.664 343.841 375.657ZM342.35 379.331C342.368 379.236 342.416 379.151 342.488 379.09C342.56 379.029 342.65 378.995 342.744 378.995C342.837 378.995 342.927 379.029 342.999 379.09C343.071 379.151 343.12 379.236 343.137 379.331C343.148 379.39 343.146 379.451 343.131 379.51C343.116 379.568 343.089 379.623 343.052 379.669C343.014 379.716 342.967 379.753 342.914 379.779C342.861 379.805 342.803 379.818 342.744 379.818C342.685 379.818 342.627 379.805 342.574 379.779C342.52 379.753 342.473 379.716 342.436 379.669C342.398 379.623 342.371 379.568 342.356 379.51C342.342 379.451 342.34 379.39 342.35 379.331Z" fill="#464547"/>
<path d="M347.581 374.268H348.809V378.665H351.458V379.686H347.581V374.268Z" fill="#464547"/>
<path d="M351.734 377.615C351.707 377.155 351.814 376.698 352.042 376.302C352.271 375.906 352.609 375.589 353.015 375.394C353.42 375.198 353.873 375.132 354.315 375.204C354.758 375.276 355.169 375.482 355.496 375.797C355.822 376.112 356.049 376.521 356.147 376.97C356.245 377.419 356.21 377.888 356.045 378.316C355.881 378.744 355.595 379.112 355.225 379.371C354.855 379.63 354.418 379.769 353.97 379.77C353.683 379.79 353.396 379.748 353.125 379.649C352.854 379.549 352.606 379.393 352.397 379.191C352.187 378.989 352.02 378.745 351.906 378.474C351.792 378.202 351.734 377.91 351.734 377.615ZM355.005 377.615C354.989 377.409 354.915 377.212 354.792 377.049C354.669 376.885 354.502 376.762 354.312 376.695C354.122 376.627 353.917 376.618 353.722 376.668C353.527 376.718 353.351 376.825 353.214 376.977C353.077 377.129 352.987 377.318 352.953 377.522C352.919 377.725 352.944 377.935 353.024 378.124C353.104 378.313 353.237 378.475 353.405 378.588C353.573 378.702 353.769 378.763 353.97 378.763C354.114 378.766 354.257 378.737 354.389 378.68C354.521 378.622 354.64 378.536 354.738 378.427C354.835 378.319 354.91 378.19 354.956 378.05C355.002 377.91 355.019 377.762 355.005 377.615Z" fill="#464547"/>
<path d="M361.187 375.515V379.004C361.225 379.318 361.192 379.636 361.09 379.934C360.987 380.232 360.819 380.502 360.599 380.722C360.378 380.941 360.111 381.106 359.818 381.202C359.525 381.297 359.214 381.322 358.91 381.273C358.2 381.301 357.5 381.098 356.909 380.692L357.379 379.827C357.782 380.123 358.263 380.286 358.759 380.295C359.587 380.295 359.959 379.912 359.959 379.16V378.976C359.794 379.152 359.594 379.291 359.373 379.381C359.151 379.472 358.914 379.512 358.676 379.501C358.404 379.524 358.13 379.489 357.872 379.398C357.613 379.307 357.376 379.162 357.175 378.972C356.974 378.783 356.814 378.552 356.704 378.295C356.594 378.038 356.538 377.76 356.538 377.48C356.538 377.199 356.594 376.922 356.704 376.665C356.814 376.408 356.974 376.177 357.175 375.987C357.376 375.797 357.613 375.652 357.872 375.561C358.13 375.47 358.404 375.435 358.676 375.459C358.935 375.437 359.196 375.48 359.436 375.584C359.677 375.688 359.889 375.849 360.056 376.054V375.515H361.187ZM360.028 377.487C360.033 377.345 360.008 377.203 359.955 377.072C359.903 376.94 359.823 376.822 359.723 376.724C359.623 376.626 359.503 376.551 359.373 376.504C359.242 376.457 359.103 376.439 358.966 376.452C358.824 376.434 358.681 376.448 358.546 376.492C358.41 376.536 358.285 376.609 358.179 376.706C358.072 376.803 357.987 376.922 357.929 377.056C357.871 377.189 357.841 377.334 357.841 377.48C357.841 377.626 357.871 377.77 357.929 377.904C357.987 378.037 358.072 378.156 358.179 378.253C358.285 378.351 358.41 378.423 358.546 378.467C358.681 378.511 358.824 378.525 358.966 378.508C359.102 378.52 359.24 378.502 359.369 378.456C359.499 378.41 359.618 378.336 359.718 378.24C359.818 378.144 359.897 378.027 359.951 377.897C360.004 377.768 360.031 377.628 360.028 377.487Z" fill="#464547"/>
<path d="M364.32 374.268C364.322 374.173 364.342 374.079 364.38 373.992C364.419 373.906 364.474 373.828 364.542 373.765C364.611 373.701 364.691 373.652 364.779 373.622C364.867 373.591 364.959 373.579 365.051 373.587C365.142 373.577 365.233 373.587 365.32 373.615C365.406 373.643 365.486 373.689 365.555 373.75C365.624 373.811 365.679 373.886 365.718 373.97C365.758 374.055 365.78 374.146 365.783 374.239C365.783 374.439 365.706 374.63 365.569 374.771C365.431 374.912 365.245 374.991 365.051 374.991C364.857 374.991 364.671 374.912 364.534 374.771C364.397 374.63 364.32 374.439 364.32 374.239V374.268ZM364.458 375.516H365.631V379.77H364.458V375.516Z" fill="#464547"/>
<path d="M370.861 377.246V379.643H369.688V377.445C369.688 376.764 369.385 376.452 368.86 376.452C368.336 376.452 367.88 376.806 367.88 377.572V379.643H366.708V375.388H367.839V375.884C368.017 375.696 368.232 375.549 368.47 375.453C368.709 375.358 368.964 375.316 369.219 375.331C369.457 375.319 369.695 375.362 369.915 375.457C370.135 375.553 370.332 375.698 370.489 375.882C370.647 376.066 370.763 376.284 370.827 376.52C370.891 376.756 370.903 377.004 370.861 377.246Z" fill="#464547"/>
</g>
<path d="M411.13 390.904H230.57V422.672H411.13V390.904Z" fill="#6F2877"/>
<path d="M297.528 411.723L295.32 408.447H294.658H292.036V411.751H290.518V400.874H294.658C297.418 400.874 299.06 402.292 299.06 404.675C299.095 405.429 298.887 406.174 298.467 406.795C298.048 407.415 297.442 407.877 296.741 408.107L299.253 411.751L297.528 411.723ZM297.528 404.632C297.528 403.072 296.521 402.193 294.575 402.193H292.008V407.086H294.575C296.479 407.1 297.487 406.192 297.487 404.646L297.528 404.632Z" fill="white"/>
<path d="M308.458 408.106H301.958C302.06 408.808 302.414 409.445 302.951 409.891C303.487 410.337 304.167 410.561 304.856 410.517C305.289 410.533 305.72 410.453 306.121 410.282C306.521 410.11 306.88 409.852 307.174 409.525L307.975 410.489C307.384 411.105 306.633 411.533 305.812 411.721C304.99 411.91 304.134 411.851 303.344 411.551C302.555 411.252 301.866 410.725 301.361 410.033C300.855 409.342 300.555 408.515 300.495 407.653C300.466 407.096 300.55 406.539 300.741 406.017C300.932 405.495 301.226 405.019 301.604 404.619C301.983 404.22 302.437 403.905 302.94 403.695C303.443 403.485 303.982 403.384 304.525 403.398C305.064 403.383 305.601 403.484 306.1 403.695C306.599 403.906 307.05 404.222 307.423 404.622C307.796 405.023 308.084 405.5 308.267 406.022C308.45 406.544 308.524 407.099 308.485 407.653C308.485 407.78 308.471 407.965 308.458 408.106ZM301.958 407.029H307.091C307.026 406.376 306.727 405.772 306.253 405.333C305.779 404.894 305.163 404.65 304.525 404.65C303.886 404.65 303.271 404.894 302.797 405.333C302.323 405.772 302.024 406.376 301.958 407.029Z" fill="white"/>
<path d="M318.173 403.497V410.588C318.173 413.495 316.724 414.842 314.033 414.842C312.66 414.903 311.309 414.472 310.21 413.623L310.9 412.474C311.783 413.179 312.873 413.554 313.991 413.538C315.882 413.538 316.751 412.644 316.751 410.772V410.12C316.394 410.541 315.95 410.874 315.451 411.095C314.951 411.316 314.41 411.419 313.867 411.396C312.839 411.396 311.853 410.976 311.125 410.229C310.398 409.482 309.99 408.468 309.99 407.411C309.99 406.354 310.398 405.34 311.125 404.593C311.853 403.846 312.839 403.426 313.867 403.426C314.435 403.408 314.999 403.527 315.514 403.773C316.03 404.02 316.482 404.386 316.834 404.844V403.568L318.173 403.497ZM316.793 407.397C316.823 406.83 316.688 406.267 316.403 405.781C316.119 405.294 315.699 404.907 315.199 404.668C314.698 404.429 314.139 404.35 313.594 404.441C313.049 404.532 312.543 404.79 312.141 405.179C311.74 405.569 311.462 406.074 311.342 406.628C311.223 407.182 311.268 407.76 311.472 408.287C311.675 408.815 312.028 409.267 312.485 409.586C312.941 409.905 313.481 410.076 314.033 410.077C314.386 410.099 314.74 410.045 315.072 409.92C315.404 409.794 315.707 409.599 315.962 409.348C316.217 409.096 316.419 408.793 316.555 408.457C316.691 408.121 316.758 407.76 316.751 407.397H316.793Z" fill="white"/>
<path d="M320.685 400.944C320.686 400.814 320.713 400.685 320.763 400.566C320.814 400.446 320.886 400.337 320.977 400.247C321.068 400.156 321.176 400.084 321.294 400.036C321.412 399.988 321.537 399.964 321.664 399.966C321.798 399.949 321.934 399.962 322.062 400.003C322.191 400.044 322.31 400.113 322.41 400.205C322.511 400.297 322.592 400.41 322.647 400.536C322.702 400.662 322.731 400.799 322.731 400.937C322.731 401.076 322.702 401.213 322.647 401.339C322.592 401.465 322.511 401.578 322.41 401.67C322.31 401.761 322.191 401.83 322.062 401.872C321.934 401.913 321.798 401.925 321.664 401.909C321.538 401.913 321.413 401.89 321.295 401.844C321.177 401.797 321.069 401.727 320.978 401.637C320.887 401.548 320.814 401.44 320.764 401.321C320.713 401.202 320.686 401.074 320.685 400.944ZM320.947 403.497H322.396V411.723H320.947V403.497Z" fill="white"/>
<path d="M324.148 410.858L324.755 409.681C325.577 410.23 326.535 410.525 327.515 410.532C328.895 410.532 329.42 410.107 329.42 409.412C329.42 407.568 324.355 409.171 324.355 405.88C324.355 404.462 325.639 403.413 327.695 403.413C328.713 403.396 329.717 403.655 330.607 404.164L329.986 405.341C329.297 404.896 328.495 404.669 327.681 404.689C326.411 404.689 325.79 405.171 325.79 405.824C325.79 407.767 330.869 406.178 330.869 409.383C330.869 410.802 329.489 411.823 327.405 411.823C326.25 411.84 325.117 411.504 324.148 410.858Z" fill="white"/>
<path d="M337.244 411.283C336.742 411.677 336.124 411.882 335.492 411.864C335.151 411.904 334.806 411.865 334.483 411.75C334.159 411.635 333.864 411.447 333.62 411.199C333.377 410.951 333.19 410.651 333.075 410.319C332.959 409.988 332.917 409.634 332.953 409.283V404.759H331.573V403.539H332.953V401.738H334.333V403.539H336.72V404.759H334.415V409.226C334.383 409.409 334.392 409.597 334.441 409.775C334.491 409.954 334.58 410.118 334.702 410.255C334.823 410.392 334.974 410.499 335.142 410.567C335.31 410.634 335.491 410.661 335.671 410.645C336.079 410.649 336.477 410.514 336.803 410.262L337.244 411.283Z" fill="white"/>
<path d="M345.938 408.106H339.48C339.582 408.81 339.939 409.449 340.478 409.896C341.018 410.342 341.701 410.564 342.392 410.517C342.823 410.534 343.253 410.454 343.651 410.282C344.049 410.111 344.406 409.852 344.696 409.525L345.497 410.489C344.908 411.107 344.158 411.536 343.337 411.725C342.516 411.915 341.659 411.856 340.87 411.556C340.081 411.256 339.393 410.728 338.889 410.035C338.385 409.343 338.087 408.515 338.031 407.652C338.002 407.096 338.086 406.539 338.277 406.017C338.468 405.495 338.762 405.019 339.14 404.619C339.519 404.22 339.973 403.905 340.476 403.695C340.979 403.484 341.518 403.383 342.061 403.398C342.6 403.385 343.135 403.487 343.634 403.699C344.132 403.911 344.582 404.227 344.954 404.627C345.327 405.027 345.615 405.503 345.798 406.024C345.982 406.545 346.058 407.1 346.021 407.652C346.007 407.806 345.979 407.958 345.938 408.106ZM339.48 407.028H344.627C344.548 406.385 344.243 405.793 343.769 405.364C343.295 404.935 342.685 404.698 342.054 404.698C341.422 404.698 340.813 404.935 340.339 405.364C339.865 405.793 339.56 406.385 339.48 407.028Z" fill="white"/>
<path d="M352.3 403.412V404.831H351.969C351.61 404.804 351.25 404.862 350.916 404.999C350.582 405.136 350.282 405.349 350.04 405.622C349.797 405.894 349.617 406.22 349.514 406.574C349.411 406.928 349.387 407.302 349.444 407.667V411.766H347.995V403.54H349.375V404.958C349.666 404.439 350.097 404.017 350.616 403.743C351.135 403.469 351.72 403.354 352.3 403.412Z" fill="white"/>
<g opacity="0.6">
<path d="M289.234 173.888L289.855 172.555C290.926 173.477 292.281 173.98 293.678 173.973C295.679 173.973 296.534 173.179 296.534 172.143C296.534 169.307 289.524 171.066 289.524 166.655C289.524 164.811 290.904 163.251 293.954 163.251C295.268 163.229 296.56 163.593 297.68 164.301L297.128 165.719C296.18 165.095 295.079 164.761 293.954 164.754C291.98 164.754 291.194 165.605 291.194 166.641C291.194 169.477 298.218 167.719 298.218 172.101C298.218 173.916 296.838 175.476 293.733 175.476C292.098 175.511 290.503 174.949 289.234 173.888Z" fill="#464547"/>
<path d="M300.067 163.435C300.069 163.293 300.098 163.152 300.154 163.021C300.209 162.89 300.289 162.771 300.389 162.672C300.489 162.573 300.607 162.496 300.737 162.444C300.867 162.393 301.005 162.368 301.144 162.372C301.281 162.366 301.418 162.388 301.546 162.438C301.675 162.487 301.792 162.562 301.893 162.658C301.993 162.754 302.073 162.87 302.13 162.999C302.186 163.127 302.217 163.266 302.22 163.407C302.22 163.7 302.107 163.982 301.905 164.189C301.703 164.397 301.429 164.513 301.144 164.513C300.858 164.513 300.584 164.397 300.383 164.189C300.181 163.982 300.067 163.7 300.067 163.407V163.435ZM300.343 166.272H301.944V175.292H300.343V166.272Z" fill="#464547"/>
<path d="M313.357 166.23V174.016C313.357 177.207 311.783 178.653 308.816 178.653C307.327 178.702 305.867 178.227 304.676 177.306L305.435 176.044C306.397 176.825 307.591 177.241 308.816 177.221C310.886 177.221 311.825 176.228 311.825 174.186V173.477C311.434 173.94 310.948 174.308 310.401 174.554C309.854 174.799 309.261 174.916 308.665 174.895C308.087 174.929 307.509 174.841 306.965 174.637C306.422 174.434 305.924 174.118 305.504 173.71C305.083 173.301 304.748 172.809 304.519 172.263C304.29 171.717 304.172 171.129 304.172 170.534C304.172 169.94 304.29 169.351 304.519 168.805C304.748 168.259 305.083 167.767 305.504 167.359C305.924 166.95 306.422 166.635 306.965 166.431C307.509 166.227 308.087 166.139 308.665 166.173C309.275 166.141 309.884 166.251 310.446 166.497C311.008 166.743 311.508 167.117 311.908 167.591V166.173L313.357 166.23ZM311.811 170.484C311.841 169.865 311.69 169.249 311.377 168.719C311.064 168.188 310.603 167.765 310.054 167.506C309.506 167.247 308.894 167.163 308.298 167.265C307.702 167.366 307.149 167.649 306.711 168.076C306.273 168.504 305.97 169.057 305.841 169.663C305.711 170.269 305.762 170.902 305.985 171.478C306.209 172.055 306.595 172.549 307.095 172.898C307.595 173.247 308.185 173.434 308.789 173.434C309.184 173.47 309.581 173.42 309.956 173.289C310.331 173.157 310.676 172.946 310.967 172.67C311.258 172.393 311.489 172.057 311.647 171.683C311.804 171.31 311.883 170.906 311.88 170.499L311.811 170.484Z" fill="#464547"/>
<path d="M324.728 170.059V175.25H323.127V170.187C323.127 168.414 322.272 167.549 320.767 167.549C320.385 167.523 320.002 167.584 319.646 167.728C319.289 167.871 318.968 168.094 318.704 168.379C318.441 168.665 318.242 169.007 318.121 169.38C318.001 169.754 317.962 170.15 318.007 170.541V175.193H316.42V166.173H317.952V167.591C318.329 167.111 318.813 166.731 319.363 166.484C319.913 166.237 320.513 166.13 321.112 166.173C321.61 166.139 322.109 166.217 322.574 166.403C323.04 166.588 323.459 166.877 323.804 167.247C324.149 167.618 324.41 168.062 324.57 168.548C324.73 169.033 324.784 169.549 324.728 170.059Z" fill="#464547"/>
<path d="M340.308 166.229V175.249H338.804V173.831C338.454 174.295 338 174.666 337.481 174.913C336.963 175.16 336.394 175.275 335.823 175.249C335.31 175.304 334.791 175.239 334.306 175.06C333.82 174.881 333.38 174.593 333.017 174.216C332.654 173.839 332.378 173.383 332.209 172.882C332.041 172.381 331.983 171.848 332.042 171.321V166.13H333.629V171.136C333.629 172.895 334.498 173.788 336.002 173.788C336.385 173.817 336.769 173.757 337.127 173.615C337.485 173.472 337.807 173.25 338.071 172.963C338.335 172.677 338.534 172.334 338.654 171.959C338.773 171.585 338.81 171.187 338.762 170.796V166.13L340.308 166.229Z" fill="#464547"/>
<path d="M352.425 170.739C352.456 171.348 352.363 171.957 352.152 172.527C351.941 173.097 351.617 173.615 351.2 174.049C350.783 174.483 350.283 174.823 349.731 175.046C349.179 175.27 348.588 175.373 347.995 175.348C347.412 175.372 346.832 175.256 346.301 175.01C345.769 174.764 345.3 174.394 344.931 173.93V178.582H343.344V166.272H344.862V167.69C345.227 167.196 345.702 166.8 346.247 166.536C346.793 166.272 347.392 166.147 347.995 166.173C348.584 166.146 349.173 166.247 349.723 166.467C350.273 166.687 350.772 167.023 351.189 167.453C351.606 167.882 351.931 168.396 352.143 168.962C352.356 169.528 352.452 170.133 352.425 170.739ZM350.824 170.739C350.797 170.146 350.601 169.575 350.261 169.095C349.921 168.615 349.452 168.248 348.911 168.04C348.371 167.831 347.783 167.79 347.219 167.922C346.656 168.053 346.143 168.351 345.743 168.779C345.343 169.208 345.074 169.747 344.97 170.331C344.865 170.914 344.929 171.517 345.154 172.063C345.379 172.61 345.755 173.077 346.235 173.406C346.715 173.735 347.279 173.913 347.857 173.916C348.259 173.925 348.659 173.847 349.031 173.689C349.403 173.531 349.739 173.295 350.018 172.996C350.297 172.698 350.513 172.343 350.651 171.955C350.79 171.566 350.849 171.152 350.824 170.739Z" fill="#464547"/>
</g>
<path d="M411.13 241.863H230.57V273.631H411.13V241.863Z" fill="white"/>
<g opacity="0.4">
<path d="M240.451 252.57H241.39V260.839H246.344V261.675H240.451V252.57Z" fill="#464547"/>
<path d="M252.761 257.435V261.689H251.905V260.626C251.654 261.005 251.31 261.31 250.908 261.509C250.506 261.708 250.06 261.795 249.614 261.76C248.11 261.76 247.186 260.952 247.186 259.76C247.186 258.569 247.834 257.832 249.752 257.832H251.864V257.42C251.864 256.243 251.215 255.605 249.973 255.605C249.167 255.594 248.383 255.881 247.765 256.414L247.351 255.719C248.139 255.091 249.115 254.765 250.111 254.797C250.462 254.753 250.818 254.791 251.153 254.906C251.489 255.022 251.794 255.214 252.048 255.466C252.302 255.719 252.498 256.027 252.621 256.368C252.744 256.708 252.792 257.073 252.761 257.435ZM251.864 259.619V258.498H249.78C248.483 258.498 248.069 259.023 248.069 259.732C248.069 260.441 248.69 261.009 249.752 261.009C250.202 261.037 250.649 260.918 251.029 260.668C251.408 260.418 251.701 260.05 251.864 259.619Z" fill="#464547"/>
<path d="M254.279 260.952L254.679 260.229C255.375 260.728 256.204 260.996 257.053 260.995C258.322 260.995 258.833 260.555 258.833 259.874C258.833 258.087 254.527 259.492 254.527 256.797C254.527 255.677 255.452 254.84 257.149 254.84C257.978 254.829 258.793 255.049 259.509 255.478L259.109 256.215C258.528 255.821 257.845 255.619 257.149 255.634C255.949 255.634 255.424 256.116 255.424 256.769C255.424 258.612 259.73 257.222 259.73 259.846C259.73 261.037 258.722 261.803 256.97 261.803C256.007 261.825 255.063 261.526 254.279 260.952Z" fill="#464547"/>
<path d="M264.96 261.264C264.568 261.584 264.08 261.754 263.58 261.746C263.318 261.775 263.052 261.744 262.803 261.653C262.554 261.563 262.328 261.417 262.141 261.225C261.955 261.033 261.812 260.801 261.725 260.545C261.637 260.289 261.606 260.016 261.634 259.747V255.62H260.434V254.839H261.634V253.336H262.531V254.839H264.546V255.62H262.531V259.704C262.508 259.867 262.52 260.034 262.569 260.192C262.617 260.349 262.699 260.493 262.809 260.614C262.92 260.734 263.055 260.827 263.205 260.885C263.355 260.944 263.517 260.967 263.677 260.952C264.039 260.963 264.393 260.837 264.67 260.597L264.96 261.264Z" fill="#464547"/>
<path d="M277.38 252.57V261.675H276.607L270.922 254.286V261.675H269.983V252.57H270.756L276.455 259.959V252.57H277.38Z" fill="#464547"/>
<path d="M285.163 257.435V261.689H284.28V260.626C284.031 261.007 283.687 261.313 283.285 261.513C282.882 261.712 282.435 261.798 281.989 261.76C280.485 261.76 279.56 260.952 279.56 259.761C279.56 258.569 280.223 257.832 282.141 257.832H284.28V257.42C284.28 256.243 283.631 255.605 282.389 255.605C281.583 255.594 280.799 255.881 280.181 256.414L279.767 255.719C280.554 255.088 281.531 254.762 282.527 254.797C282.877 254.755 283.232 254.795 283.565 254.911C283.899 255.028 284.202 255.22 284.455 255.472C284.707 255.725 284.902 256.032 285.024 256.372C285.147 256.711 285.194 257.074 285.163 257.435ZM284.266 259.619V258.498H282.169C280.885 258.498 280.471 259.023 280.471 259.732C280.471 260.441 281.092 261.009 282.155 261.009C282.607 261.04 283.057 260.922 283.439 260.672C283.822 260.422 284.116 260.053 284.28 259.619H284.266Z" fill="#464547"/>
<path d="M298.591 257.704V261.675H297.694V257.804C297.694 256.385 296.976 255.62 295.775 255.62C295.464 255.605 295.154 255.66 294.865 255.781C294.577 255.903 294.318 256.087 294.106 256.322C293.895 256.557 293.735 256.837 293.64 257.142C293.545 257.447 293.515 257.769 293.554 258.087V261.675H292.657V257.804C292.657 256.385 291.939 255.62 290.725 255.62C290.413 255.605 290.103 255.66 289.814 255.781C289.526 255.903 289.267 256.087 289.055 256.322C288.844 256.557 288.685 256.837 288.589 257.142C288.494 257.447 288.464 257.769 288.503 258.087V261.675H287.606V254.839H288.42V256.088C288.68 255.669 289.043 255.329 289.472 255.1C289.9 254.871 290.38 254.762 290.863 254.783C291.352 254.741 291.842 254.855 292.266 255.109C292.691 255.362 293.029 255.744 293.236 256.201C293.509 255.744 293.896 255.371 294.358 255.121C294.819 254.872 295.337 254.755 295.858 254.783C296.236 254.745 296.617 254.795 296.973 254.93C297.329 255.066 297.65 255.282 297.913 255.563C298.176 255.844 298.374 256.183 298.491 256.554C298.608 256.925 298.642 257.318 298.591 257.704Z" fill="#464547"/>
<path d="M306.857 258.541H301.337C301.356 258.874 301.439 259.201 301.582 259.501C301.724 259.802 301.923 260.07 302.166 260.292C302.41 260.513 302.694 260.683 303.001 260.791C303.309 260.9 303.634 260.945 303.959 260.923C304.342 260.936 304.723 260.863 305.076 260.708C305.429 260.554 305.745 260.323 306.001 260.03L306.498 260.626C306.02 261.139 305.405 261.496 304.73 261.652C304.056 261.809 303.352 261.757 302.705 261.505C302.059 261.252 301.499 260.809 301.097 260.232C300.694 259.654 300.465 258.967 300.44 258.257C300.417 257.806 300.485 257.354 300.639 256.93C300.793 256.507 301.03 256.12 301.335 255.794C301.64 255.469 302.008 255.211 302.414 255.037C302.82 254.863 303.257 254.776 303.697 254.783C304.136 254.774 304.572 254.859 304.978 255.032C305.384 255.206 305.75 255.464 306.054 255.791C306.357 256.118 306.592 256.505 306.742 256.93C306.892 257.355 306.955 257.807 306.926 258.257C306.871 258.342 306.857 258.442 306.857 258.541ZM301.337 257.86H306.056C306.056 257.217 305.808 256.6 305.365 256.145C304.923 255.691 304.322 255.435 303.697 255.435C303.071 255.435 302.471 255.691 302.028 256.145C301.585 256.6 301.337 257.217 301.337 257.86Z" fill="#464547"/>
</g>
<path d="M411.13 198.466H230.57V230.234H411.13V198.466Z" fill="white"/>
<g opacity="0.4">
<path d="M241.39 210.01V213.584H245.971V214.421H241.39V218.278H240.451V209.173H246.523V210.01H241.39Z" fill="#464547"/>
<path d="M247.945 209.272C247.942 209.136 247.979 209.003 248.05 208.889C248.122 208.775 248.226 208.685 248.347 208.632C248.469 208.579 248.603 208.564 248.733 208.59C248.863 208.616 248.982 208.681 249.075 208.777C249.169 208.873 249.232 208.995 249.257 209.129C249.282 209.262 249.268 209.4 249.216 209.525C249.164 209.65 249.077 209.756 248.966 209.83C248.855 209.904 248.725 209.942 248.593 209.939C248.421 209.939 248.256 209.869 248.135 209.744C248.013 209.619 247.945 209.449 247.945 209.272ZM248.138 211.442H249.035V218.278H248.138V211.442Z" fill="#464547"/>
<path d="M254.9 211.385V212.278H254.679C254.362 212.262 254.045 212.319 253.752 212.443C253.459 212.568 253.196 212.758 252.982 212.999C252.769 213.24 252.609 213.527 252.516 213.839C252.423 214.151 252.398 214.48 252.443 214.803V218.292H251.546V211.456H252.402V212.732C252.641 212.278 253.006 211.907 253.451 211.667C253.896 211.427 254.4 211.329 254.9 211.385Z" fill="#464547"/>
<path d="M255.645 217.497L256.045 216.76C256.735 217.274 257.567 217.547 258.419 217.54C259.689 217.54 260.199 217.086 260.199 216.42C260.199 214.633 255.894 216.037 255.894 213.328C255.894 212.222 256.818 211.385 258.516 211.385C259.345 211.366 260.162 211.587 260.875 212.023L260.475 212.761C259.895 212.367 259.211 212.164 258.516 212.179C257.315 212.179 256.791 212.661 256.791 213.314C256.791 215.157 261.096 213.767 261.096 216.391C261.096 217.568 260.089 218.334 258.336 218.334C257.375 218.36 256.431 218.066 255.645 217.497Z" fill="#464547"/>
<path d="M266.34 217.866C265.944 218.176 265.458 218.341 264.96 218.334C264.698 218.366 264.433 218.336 264.184 218.248C263.935 218.159 263.708 218.014 263.521 217.824C263.334 217.633 263.192 217.401 263.104 217.146C263.016 216.89 262.985 216.618 263.014 216.349V212.222H261.814V211.442H263.014V209.896H263.911V211.399H265.926V212.179H263.911V216.25C263.888 216.414 263.901 216.581 263.949 216.739C263.997 216.897 264.079 217.042 264.189 217.163C264.299 217.284 264.434 217.379 264.584 217.439C264.734 217.499 264.896 217.524 265.057 217.512C265.418 217.517 265.77 217.391 266.05 217.157L266.34 217.866Z" fill="#464547"/>
<path d="M278.76 209.173V218.278H277.987L272.302 210.889V218.278H271.363V209.173H272.136L277.835 216.562V209.173H278.76Z" fill="#464547"/>
<path d="M286.529 214.037V218.291H285.66V217.228C285.413 217.607 285.071 217.91 284.67 218.107C284.27 218.304 283.825 218.388 283.383 218.348C281.865 218.348 280.94 217.554 280.94 216.363C280.94 215.171 281.603 214.434 283.521 214.434H285.66V214.008C285.66 212.845 285.011 212.207 283.769 212.207C282.963 212.196 282.179 212.483 281.561 213.016L281.147 212.321C281.934 211.691 282.911 211.365 283.907 211.399C284.257 211.357 284.611 211.396 284.944 211.513C285.276 211.63 285.58 211.822 285.831 212.075C286.082 212.328 286.275 212.635 286.396 212.974C286.517 213.314 286.563 213.677 286.529 214.037ZM285.632 216.221V215.1H283.535C282.251 215.1 281.837 215.625 281.837 216.32C281.837 217.015 282.458 217.611 283.521 217.611C283.975 217.643 284.427 217.526 284.812 217.276C285.197 217.026 285.494 216.656 285.66 216.221H285.632Z" fill="#464547"/>
<path d="M299.957 214.307V218.278H299.06V214.406C299.06 212.988 298.342 212.222 297.142 212.222C296.83 212.207 296.52 212.262 296.231 212.384C295.943 212.505 295.684 212.69 295.472 212.925C295.261 213.16 295.102 213.44 295.006 213.744C294.911 214.049 294.881 214.372 294.92 214.69V218.278H294.023V214.406C294.023 212.988 293.305 212.222 292.091 212.222C291.78 212.207 291.469 212.262 291.181 212.384C290.892 212.505 290.633 212.69 290.422 212.925C290.21 213.16 290.051 213.44 289.955 213.744C289.86 214.049 289.831 214.372 289.869 214.69V218.278H288.972V211.442H289.8V212.732C290.06 212.314 290.423 211.974 290.852 211.745C291.28 211.516 291.76 211.406 292.243 211.428C292.732 211.386 293.222 211.5 293.646 211.754C294.071 212.007 294.409 212.388 294.616 212.846C294.886 212.387 295.273 212.012 295.735 211.762C296.197 211.512 296.717 211.397 297.238 211.428C297.611 211.393 297.986 211.445 298.337 211.578C298.688 211.712 299.005 211.925 299.266 212.201C299.526 212.477 299.723 212.809 299.843 213.173C299.963 213.538 300.002 213.925 299.957 214.307Z" fill="#464547"/>
<path d="M308.223 215.143H302.703C302.722 215.477 302.806 215.803 302.948 216.104C303.09 216.404 303.289 216.673 303.533 216.894C303.776 217.116 304.06 217.285 304.368 217.394C304.675 217.502 305.001 217.547 305.325 217.526C305.71 217.539 306.092 217.464 306.445 217.307C306.798 217.15 307.113 216.915 307.367 216.618L307.864 217.228C307.386 217.741 306.771 218.098 306.097 218.255C305.422 218.411 304.718 218.36 304.071 218.107C303.425 217.854 302.866 217.412 302.463 216.834C302.06 216.257 301.831 215.57 301.806 214.86C301.783 214.408 301.851 213.956 302.005 213.533C302.159 213.109 302.396 212.723 302.701 212.397C303.007 212.071 303.374 211.813 303.78 211.639C304.186 211.465 304.623 211.379 305.063 211.385C305.502 211.376 305.939 211.461 306.345 211.635C306.75 211.809 307.117 212.067 307.42 212.393C307.724 212.72 307.958 213.108 308.108 213.533C308.258 213.957 308.321 214.409 308.292 214.86C308.237 214.931 308.223 215.03 308.223 215.143ZM302.703 214.448H307.423C307.423 213.805 307.174 213.188 306.731 212.734C306.289 212.279 305.689 212.023 305.063 212.023C304.437 212.023 303.837 212.279 303.394 212.734C302.952 213.188 302.703 213.805 302.703 214.448Z" fill="#464547"/>
</g>
<path d="M162.633 468.408H161.322C161.322 466.409 162.936 419.551 170.871 411.68C179.027 403.525 188.618 411.566 188.701 411.68L187.873 412.701C187.514 412.403 179.083 405.369 171.769 412.701C164.22 420.09 162.647 467.926 162.633 468.408Z" fill="#6F2877"/>
<path d="M161.971 477.812L160.673 477.684C160.673 477.117 165.807 420.785 145.949 397.356L146.929 396.477C167.159 420.345 162.026 477.244 161.971 477.812Z" fill="#6F2877"/>
<path d="M162.605 471.798C162.44 469.132 158.617 406.56 173.88 392.094L174.763 393.087C159.956 407.07 163.861 471.089 163.902 471.698L162.605 471.798Z" fill="#6F2877"/>
<path d="M160.673 471.756C160.673 471.33 160.204 429.209 149.344 422.87C148.42 422.244 147.364 421.856 146.264 421.737C145.164 421.619 144.053 421.774 143.023 422.189C136.661 424.898 133.28 437.378 133.239 437.506L131.983 437.151C132.121 436.612 135.571 423.919 142.526 420.955C143.738 420.455 145.049 420.262 146.349 420.393C147.648 420.524 148.898 420.975 149.992 421.707C161.488 428.472 161.971 469.926 161.984 471.742L160.673 471.756Z" fill="#6F2877"/>
<path d="M165.145 471.784C165.062 470.366 163.392 438.541 172.183 426.727C174.529 423.593 177.123 422.104 179.938 422.317C186.19 422.756 190.978 431.464 191.24 431.833L190.109 432.499C190.109 432.414 185.389 423.99 179.842 423.65C177.509 423.465 175.274 424.784 173.218 427.55C164.717 438.896 166.428 471.387 166.442 471.713L165.145 471.784Z" fill="#6F2877"/>
<path d="M163.392 476.194L162.095 476.095C162.095 475.329 167.615 399.341 158.507 386.662L159.556 385.868C168.967 398.944 163.627 473.046 163.392 476.194Z" fill="#6F2877"/>
<path d="M140.001 428.514C140.001 428.514 145.631 430.655 143.962 435.69C142.292 440.725 124.462 449.021 124.462 449.021C124.462 449.021 116.996 442.001 123.855 430.585C130.714 419.168 139.849 424.912 140.001 428.514Z" fill="#6F2877"/>
<path opacity="0.2" d="M140.001 428.514C140.001 428.514 145.631 430.655 143.962 435.69C142.292 440.725 124.462 449.021 124.462 449.021C124.462 449.021 116.996 442.001 123.855 430.585C130.714 419.168 139.849 424.912 140.001 428.514Z" fill="#464547"/>
<path d="M164.496 418.927C164.496 418.927 158.493 418.671 158.148 423.976C157.803 429.28 171.12 444.001 171.12 444.001C171.12 444.001 180.642 440.455 178.6 427.195C176.557 413.935 165.986 415.651 164.496 418.927Z" fill="#6F2877"/>
<path opacity="0.2" d="M164.496 418.927C164.496 418.927 158.493 418.671 158.148 423.976C157.803 429.28 171.12 444.001 171.12 444.001C171.12 444.001 180.642 440.455 178.6 427.195C176.557 413.935 165.986 415.651 164.496 418.927Z" fill="#464547"/>
<path d="M169.574 393.484C169.574 393.484 165.572 393.044 165.89 390.548C166.207 388.052 181.442 381.599 190.426 391.967C190.426 391.967 184.672 402.121 176.364 402.263C168.056 402.405 169.574 393.484 169.574 393.484Z" fill="#6F2877"/>
<path opacity="0.2" d="M169.574 393.484C169.574 393.484 165.572 393.044 165.89 390.548C166.207 388.052 181.442 381.599 190.426 391.967C190.426 391.967 184.672 402.121 176.364 402.263C168.056 402.405 169.574 393.484 169.574 393.484Z" fill="#464547"/>
<path d="M162.122 387.4C162.122 387.4 165.738 389.201 166.759 386.904C167.78 384.606 158.162 370.864 145.176 374.82C145.176 374.82 144.831 386.563 151.814 391.201C158.796 395.838 162.122 387.4 162.122 387.4Z" fill="#6F2877"/>
<path opacity="0.2" d="M162.122 387.4C162.122 387.4 165.738 389.201 166.759 386.904C167.78 384.606 158.162 370.864 145.176 374.82C145.176 374.82 144.831 386.563 151.814 391.201C158.796 395.838 162.122 387.4 162.122 387.4Z" fill="#464547"/>
<path d="M181.056 426.5C181.056 426.5 178.296 424.203 181.277 423.082C184.258 421.962 198.872 422.288 199.024 437.165C199.024 437.165 181.994 440.073 179.897 434.4C177.799 428.727 181.056 426.5 181.056 426.5Z" fill="#6F2877"/>
<path opacity="0.2" d="M181.056 426.5C181.056 426.5 178.296 424.203 181.277 423.082C184.258 421.962 198.872 422.288 199.024 437.165C199.024 437.165 181.994 440.073 179.897 434.4C177.799 428.727 181.056 426.5 181.056 426.5Z" fill="#464547"/>
<path d="M146.28 393.116C146.28 393.116 149.04 390.818 146.059 389.712C143.078 388.606 128.464 388.904 128.312 403.781C128.312 403.781 145.342 406.702 147.439 401.03C149.537 395.357 146.28 393.116 146.28 393.116Z" fill="#6F2877"/>
<path opacity="0.2" d="M146.28 393.116C146.28 393.116 149.04 390.818 146.059 389.712C143.078 388.606 128.464 388.904 128.312 403.781C128.312 403.781 145.342 406.702 147.439 401.03C149.537 395.357 146.28 393.116 146.28 393.116Z" fill="#464547"/>
<path d="M155.333 405.099C155.333 405.099 155.581 402.263 153.387 403.411C151.193 404.56 143.589 412.956 151.483 420.969C151.483 420.969 162.122 412.871 160.204 408.659C158.286 404.447 155.333 405.099 155.333 405.099Z" fill="#6F2877"/>
<path opacity="0.2" d="M155.333 405.099C155.333 405.099 155.581 402.263 153.387 403.411C151.193 404.56 143.589 412.956 151.483 420.969C151.483 420.969 162.122 412.871 160.204 408.659C158.286 404.447 155.333 405.099 155.333 405.099Z" fill="#464547"/>
<path d="M183.54 409.07C183.54 409.07 181.884 406.844 184.313 406.574C186.742 406.305 197.561 409.269 195.035 420.388C195.035 420.388 181.843 419.367 181.235 414.715C180.628 410.063 183.54 409.07 183.54 409.07Z" fill="#6F2877"/>
<path opacity="0.2" d="M183.54 409.07C183.54 409.07 181.884 406.844 184.313 406.574C186.742 406.305 197.561 409.269 195.035 420.388C195.035 420.388 181.843 419.367 181.235 414.715C180.628 410.063 183.54 409.07 183.54 409.07Z" fill="#464547"/>
<path d="M140.981 512.998H183.637L189.308 470.366H135.309L140.981 512.998Z" fill="#464547"/>
<path opacity="0.2" d="M140.981 512.998H183.637L189.308 470.366H135.309L140.981 512.998Z" fill="white"/>
<path d="M194.663 466.905V470.961C194.663 472.263 194.16 473.511 193.264 474.431C192.369 475.351 191.154 475.868 189.888 475.868H134.205C132.939 475.868 131.724 475.351 130.829 474.431C129.933 473.511 129.43 472.263 129.43 470.961V466.905H194.663Z" fill="#464547"/>
<path d="M550.096 62.8409H510.448C507.213 62.8409 504.11 64.1617 501.822 66.5129C499.534 68.864 498.249 72.0529 498.249 75.3779V110.833C498.247 112.481 498.561 114.113 499.174 115.635C499.786 117.158 500.684 118.542 501.817 119.707C502.95 120.873 504.296 121.798 505.776 122.429C507.257 123.06 508.845 123.385 510.448 123.385H522.026L519.266 134.574L530.306 123.385H550.165C553.404 123.385 556.51 122.062 558.8 119.708C561.091 117.355 562.378 114.162 562.378 110.833V75.3779C562.378 73.7243 562.059 72.0871 561.441 70.5605C560.823 69.0338 559.917 67.648 558.775 66.4827C557.634 65.3174 556.279 64.3957 554.789 63.7707C553.3 63.1456 551.704 62.8296 550.096 62.8409Z" fill="#6F2877"/>
<path opacity="0.7" d="M550.096 62.8409H510.448C507.213 62.8409 504.11 64.1617 501.822 66.5129C499.534 68.864 498.249 72.0529 498.249 75.3779V110.833C498.247 112.481 498.561 114.113 499.174 115.635C499.786 117.158 500.684 118.542 501.817 119.707C502.95 120.873 504.296 121.798 505.776 122.429C507.257 123.06 508.845 123.385 510.448 123.385H522.026L519.266 134.574L530.306 123.385H550.165C553.404 123.385 556.51 122.062 558.8 119.708C561.091 117.355 562.378 114.162 562.378 110.833V75.3779C562.378 73.7243 562.059 72.0871 561.441 70.5605C560.823 69.0338 559.917 67.648 558.775 66.4827C557.634 65.3174 556.279 64.3957 554.789 63.7707C553.3 63.1456 551.704 62.8296 550.096 62.8409Z" fill="white"/>
<path d="M530.279 108.777C538.777 108.777 545.666 101.698 545.666 92.9642C545.666 84.2309 538.777 77.1511 530.279 77.1511C521.781 77.1511 514.892 84.2309 514.892 92.9642C514.892 101.698 521.781 108.777 530.279 108.777Z" fill="white"/>
<path d="M530.279 72.7405C526.387 72.7405 522.582 73.9266 519.346 76.1488C516.11 78.371 513.587 81.5295 512.098 85.2249C510.609 88.9204 510.219 92.9867 510.978 96.9097C511.737 100.833 513.612 104.436 516.364 107.265C519.116 110.093 522.622 112.019 526.44 112.799C530.257 113.58 534.214 113.179 537.81 111.649C541.405 110.118 544.479 107.526 546.641 104.2C548.803 100.874 549.958 96.9641 549.958 92.9643C549.959 90.3079 549.452 87.6772 548.463 85.2227C547.475 82.7682 546.026 80.538 544.198 78.6597C542.37 76.7814 540.2 75.2918 537.812 74.2761C535.423 73.2605 532.864 72.7386 530.279 72.7405ZM541.443 86.9226L529.589 101.275C529.42 101.482 529.209 101.649 528.971 101.761C528.732 101.874 528.472 101.931 528.209 101.927C527.946 101.929 527.687 101.871 527.448 101.759C527.21 101.646 526.998 101.481 526.829 101.275L519.115 91.9289C518.952 91.7442 518.826 91.5275 518.747 91.292C518.667 91.0564 518.634 90.8068 518.65 90.5579C518.666 90.309 518.731 90.066 518.84 89.8434C518.95 89.6208 519.102 89.4231 519.287 89.2621C519.473 89.1012 519.688 88.9802 519.919 88.9064C520.151 88.8327 520.395 88.8077 520.637 88.8329C520.878 88.8581 521.112 88.933 521.325 89.0531C521.538 89.1732 521.725 89.3362 521.875 89.5322L528.209 97.2047L538.683 84.5259C538.998 84.1691 539.435 83.9518 539.902 83.9198C540.37 83.8879 540.831 84.0437 541.189 84.3545C541.547 84.6653 541.774 85.1068 541.821 85.5859C541.868 86.065 541.733 86.5442 541.443 86.9226Z" fill="#6F2877"/>
<path d="M543.223 281.601C543.223 281.601 519.197 278.481 482.793 288.692C482.793 288.692 476.942 221.838 477.632 212.648C478.322 203.458 533.839 206.152 533.839 206.152C533.839 206.152 535.219 232.914 538.835 249.053C542.45 265.192 545.1 278.495 543.223 281.601Z" fill="#6F2877"/>
<path opacity="0.2" d="M543.223 281.601C543.223 281.601 519.197 278.481 482.793 288.692C482.793 288.692 476.942 221.838 477.632 212.648C478.322 203.458 533.839 206.152 533.839 206.152C533.839 206.152 535.219 232.914 538.835 249.053C542.45 265.192 545.1 278.495 543.223 281.601Z" fill="#464547"/>
<path d="M465.239 502.928L475.037 505.779L477.369 490.107L478.625 481.726L468.827 478.875L467.157 490.107L465.239 502.928Z" fill="#E4897B"/>
<path d="M521.571 503.751L531.672 505.126L531.769 490.108L531.838 480.776L521.723 479.414L521.654 490.108L521.571 503.751Z" fill="#E4897B"/>
<path opacity="0.2" d="M521.723 479.414L521.654 490.108H531.769L531.838 480.776L521.723 479.414Z" fill="#464547"/>
<path opacity="0.2" d="M467.157 490.107H477.37L478.625 481.726L468.827 478.875L467.157 490.107Z" fill="#464547"/>
<path d="M421.742 218.136L412.013 215.186L413.793 226.602C413.793 226.602 422.625 228.687 423.453 223.965L421.742 218.136Z" fill="#E4897B"/>
<path d="M402.297 217.838L407.072 227.113L413.793 226.602L412.013 215.186L402.297 217.838Z" fill="#E4897B"/>
<path d="M435.169 221.058L419.189 217.385L417.74 225.355L432.243 228.986L435.169 221.058Z" fill="#E4897B"/>
<path d="M483.511 213.853L482.572 215.002C480.557 217.427 475.672 223.284 470.58 228.333C466.44 232.446 462.3 236.034 459.54 236.757C451.715 238.828 423.274 230.219 423.274 230.219L426.213 218.363C426.213 218.363 452.709 221.979 454.765 221.979C456.325 221.979 472.443 197.983 476.348 196.012L483.511 213.853Z" fill="#6F2877"/>
<path opacity="0.2" d="M482.572 215.002C480.557 217.427 475.672 223.284 470.58 228.333C471.601 220.022 474.568 212.392 478.474 207.571C478.838 207.105 479.255 206.686 479.716 206.323L482.572 215.002Z" fill="#464547"/>
<path d="M465.363 501.354L476.486 501.056C476.687 501.05 476.884 501.113 477.044 501.237C477.205 501.361 477.319 501.537 477.369 501.737L479.715 510.941C479.771 511.161 479.779 511.392 479.736 511.615C479.694 511.839 479.603 512.05 479.47 512.232C479.338 512.415 479.167 512.564 478.97 512.67C478.774 512.775 478.557 512.834 478.335 512.841C474.32 512.841 468.51 512.842 463.473 512.941C457.566 513.111 453.813 512.813 446.913 512.941C442.773 513.054 441.393 508.771 443.159 508.332C451.067 506.318 456.242 506.715 462.976 502.177C463.687 501.69 464.511 501.406 465.363 501.354Z" fill="#464547"/>
<path d="M464.398 502.828C462.769 503.197 459.871 503.693 458.712 502.715C458.543 502.571 458.41 502.388 458.323 502.181C458.237 501.974 458.2 501.748 458.215 501.524C458.215 501.389 458.249 501.256 458.314 501.139C458.38 501.022 458.474 500.925 458.588 500.857C459.816 500.105 463.97 502.133 464.453 502.36C464.495 502.384 464.53 502.419 464.555 502.461C464.579 502.504 464.591 502.552 464.591 502.601C464.588 502.656 464.568 502.709 464.533 502.75C464.498 502.791 464.45 502.819 464.398 502.828ZM458.878 501.254H458.795C458.749 501.281 458.71 501.321 458.684 501.368C458.657 501.415 458.643 501.469 458.643 501.524C458.631 501.67 458.654 501.817 458.709 501.953C458.765 502.089 458.851 502.209 458.96 502.304C459.609 502.857 461.293 502.913 463.528 502.46C461.914 501.765 459.664 500.956 458.905 501.254H458.878Z" fill="#6F2877"/>
<path d="M464.397 502.828H464.232C462.976 502.29 460.464 500.106 460.602 498.928C460.602 498.645 460.823 498.29 461.486 498.205C461.729 498.172 461.976 498.189 462.213 498.255C462.45 498.321 462.671 498.434 462.866 498.588C464.246 499.652 464.563 502.446 464.591 502.559C464.595 502.602 464.588 502.646 464.571 502.685C464.554 502.725 464.528 502.76 464.494 502.786L464.397 502.828ZM461.306 498.758C461.099 498.829 461.085 498.943 461.085 498.985C461.003 499.694 462.714 501.424 463.997 502.162C463.849 500.971 463.337 499.858 462.534 498.985C462.398 498.867 462.239 498.781 462.068 498.732C461.896 498.683 461.717 498.673 461.541 498.702C461.46 498.709 461.381 498.728 461.306 498.758Z" fill="#6F2877"/>
<path d="M521.971 501.354L533.094 501.056C533.296 501.049 533.495 501.112 533.658 501.236C533.821 501.36 533.938 501.536 533.991 501.737L536.323 510.941C536.382 511.162 536.391 511.393 536.35 511.618C536.308 511.842 536.218 512.054 536.085 512.238C535.952 512.421 535.78 512.571 535.582 512.675C535.384 512.78 535.166 512.837 534.943 512.842C530.927 512.842 525.117 512.842 520.067 512.941C514.174 513.111 510.407 512.813 503.507 512.941C499.367 513.054 497.987 508.771 499.753 508.332C507.661 506.318 512.822 506.715 519.556 502.177C520.275 501.685 521.109 501.401 521.971 501.354Z" fill="#464547"/>
<path d="M521.019 502.828C519.39 503.197 516.479 503.693 515.333 502.715C515.164 502.571 515.031 502.388 514.945 502.181C514.858 501.974 514.821 501.748 514.836 501.524C514.836 501.389 514.87 501.256 514.935 501.139C515.001 501.022 515.095 500.925 515.209 500.857C516.423 500.105 520.591 502.133 521.06 502.36C521.106 502.379 521.145 502.413 521.17 502.456C521.195 502.5 521.205 502.551 521.198 502.601C521.195 502.654 521.175 502.703 521.143 502.744C521.111 502.784 521.068 502.814 521.019 502.828ZM515.499 501.254H515.416C515.371 501.281 515.333 501.32 515.309 501.368C515.284 501.416 515.274 501.47 515.278 501.524C515.264 501.67 515.286 501.819 515.341 501.955C515.397 502.091 515.484 502.211 515.595 502.304C516.244 502.857 517.914 502.913 520.163 502.46C518.521 501.765 516.272 500.956 515.513 501.254H515.499Z" fill="#6F2877"/>
<path d="M521.019 502.829H520.839C519.597 502.29 517.072 500.106 517.224 498.929C517.224 498.645 517.431 498.291 518.093 498.205C518.336 498.171 518.584 498.187 518.821 498.253C519.058 498.319 519.28 498.433 519.473 498.588C520.439 499.694 521.042 501.083 521.198 502.559C521.205 502.603 521.2 502.647 521.183 502.688C521.166 502.728 521.137 502.762 521.102 502.786L521.019 502.829ZM517.914 498.759C517.721 498.829 517.707 498.943 517.707 498.985C517.61 499.695 519.335 501.425 520.619 502.162C520.461 500.974 519.95 499.865 519.156 498.985C519.019 498.869 518.86 498.783 518.689 498.734C518.517 498.685 518.338 498.674 518.162 498.702L517.914 498.759Z" fill="#6F2877"/>
<path d="M542.409 275.502C547.763 299.343 538.572 486.902 538.572 486.902H520.826L513.236 330.6L485.291 486.902L466.316 485.484C478.736 364.396 489.679 292.11 489.679 292.11V282.976L542.409 275.502Z" fill="#464547"/>
<path opacity="0.4" d="M466.316 485.484L485.291 486.902L507.288 363.857L513.236 330.6L520.826 486.902H538.572C538.572 486.902 547.763 299.343 542.409 275.502L489.651 282.976V292.11C489.651 292.11 478.722 364.396 466.316 485.484Z" fill="white"/>
<path d="M532.845 187.205C532.301 198.603 532.583 210.028 533.687 221.384C534.432 229.326 535.454 236.828 536.544 243.593C539.097 259.463 541.995 271.362 542.409 275.517L489.651 282.991C470.414 227.68 477.659 195.544 477.659 195.544C481.604 193.87 485.646 192.449 489.762 191.289C490.631 191.048 491.514 190.821 492.425 190.608C499.835 189.11 507.322 188.049 514.85 187.431C516.23 187.304 517.734 187.205 519.142 187.134C526.346 186.765 532.845 187.205 532.845 187.205Z" fill="#464547"/>
<path d="M504.611 162.315C504.997 169.902 505.784 184.141 511.925 187.758C511.925 187.758 508.102 195.232 499.836 195.998C493.585 196.565 493.999 190.225 493.999 190.225C497.614 187.46 496.759 182.766 493.999 177.462L504.611 162.315Z" fill="#E4897B"/>
<path opacity="0.2" d="M500.277 168.499L494.04 177.462C494.696 178.688 495.25 179.969 495.696 181.291C498.594 180.1 501.92 175.618 501.437 172.37C501.285 171.017 500.892 169.705 500.277 168.499Z" fill="#464547"/>
<path d="M477.701 147.041C476.5 150.983 477.162 159.067 482.503 156.444C487.844 153.82 479.771 140.276 477.701 147.041Z" fill="#464547"/>
<path d="M505.301 152.374C505.894 162.485 506.681 168.371 502.389 174.101C495.861 182.709 483.221 179.504 479.688 169.747C476.514 160.954 476.086 145.892 485.208 140.787C487.23 139.656 489.498 139.071 491.8 139.087C494.101 139.102 496.362 139.717 498.369 140.875C500.377 142.033 502.066 143.695 503.278 145.706C504.49 147.717 505.186 150.011 505.301 152.374Z" fill="#E4897B"/>
<path d="M498.401 146.87V135.525C498.401 135.525 510.103 134.631 509.579 140.786C516.065 144.091 513.001 154.458 504.293 159.535C499.519 155.607 500.071 146.161 500.071 146.161C499.56 146.431 498.98 146.658 498.401 146.87Z" fill="#464547"/>
<path d="M510.062 160.259C509.836 161.496 509.372 162.674 508.697 163.724C508.021 164.773 507.148 165.674 506.129 166.371C503.369 168.229 500.981 165.946 500.885 162.755C500.802 159.918 502.113 155.437 505.287 154.87C505.981 154.758 506.692 154.826 507.354 155.066C508.017 155.306 508.611 155.711 509.084 156.245C509.558 156.779 509.894 157.425 510.065 158.125C510.236 158.826 510.234 159.559 510.062 160.259Z" fill="#E4897B"/>
<path d="M490.769 156.883C490.866 157.705 490.521 158.415 489.997 158.471C489.472 158.528 488.975 157.918 488.879 157.053C488.782 156.188 489.127 155.521 489.638 155.465C490.148 155.408 490.673 156.004 490.769 156.883Z" fill="#464547"/>
<path d="M481.744 157.919C481.841 158.742 481.496 159.451 480.971 159.507C480.447 159.564 479.95 158.954 479.853 158.089C479.757 157.224 480.102 156.557 480.626 156.501C481.151 156.444 481.62 157.096 481.744 157.919Z" fill="#464547"/>
<path d="M484.656 157.99C483.959 160.526 482.923 162.95 481.578 165.194C482.174 165.509 482.827 165.69 483.495 165.727C484.164 165.763 484.832 165.654 485.456 165.407L484.656 157.99Z" fill="#DE5753"/>
<path d="M490.107 168.044C489.766 168.134 489.421 168.2 489.072 168.243C489.01 168.243 488.95 168.218 488.906 168.172C488.862 168.127 488.837 168.066 488.837 168.002C488.837 167.938 488.862 167.877 488.906 167.831C488.95 167.786 489.01 167.761 489.072 167.761C490.063 167.668 491.019 167.338 491.863 166.796C492.706 166.254 493.414 165.516 493.929 164.641C493.941 164.612 493.959 164.586 493.981 164.565C494.003 164.543 494.029 164.527 494.057 164.516C494.086 164.505 494.116 164.501 494.146 164.503C494.177 164.505 494.206 164.513 494.233 164.527C494.261 164.541 494.287 164.56 494.308 164.584C494.329 164.608 494.345 164.636 494.355 164.666C494.366 164.697 494.37 164.729 494.368 164.761C494.366 164.793 494.357 164.825 494.343 164.853C493.892 165.659 493.282 166.359 492.553 166.908C491.823 167.458 490.99 167.845 490.107 168.044Z" fill="#464547"/>
<path d="M493.198 153.579C493.115 153.599 493.027 153.597 492.945 153.572C492.863 153.547 492.788 153.501 492.729 153.438C492.329 152.988 491.833 152.639 491.28 152.42C490.726 152.201 490.131 152.117 489.541 152.175C489.48 152.19 489.417 152.191 489.356 152.179C489.294 152.168 489.236 152.143 489.184 152.107C489.132 152.071 489.088 152.025 489.055 151.971C489.021 151.917 488.999 151.856 488.989 151.792C488.977 151.73 488.977 151.666 488.989 151.603C489.002 151.541 489.026 151.482 489.06 151.429C489.095 151.376 489.139 151.331 489.191 151.296C489.243 151.261 489.301 151.237 489.362 151.225C490.107 151.134 490.862 151.227 491.565 151.496C492.268 151.764 492.899 152.202 493.405 152.771C493.45 152.815 493.486 152.868 493.511 152.926C493.535 152.985 493.548 153.048 493.548 153.111C493.548 153.175 493.535 153.238 493.511 153.297C493.486 153.355 493.45 153.408 493.405 153.452C493.346 153.509 493.275 153.553 493.198 153.579Z" fill="#464547"/>
<path d="M477.48 155.182C477.391 155.217 477.293 155.217 477.204 155.182C477.087 155.14 476.991 155.052 476.937 154.938C476.883 154.824 476.875 154.692 476.914 154.572C477.142 153.842 477.538 153.18 478.07 152.641C478.601 152.103 479.251 151.705 479.964 151.48C480.085 151.448 480.213 151.467 480.32 151.532C480.428 151.597 480.506 151.704 480.537 151.828C480.568 151.952 480.55 152.084 480.486 152.194C480.423 152.304 480.319 152.384 480.199 152.416C479.634 152.595 479.121 152.914 478.705 153.344C478.289 153.774 477.982 154.303 477.811 154.884C477.785 154.958 477.741 155.025 477.683 155.077C477.625 155.129 477.555 155.165 477.48 155.182Z" fill="#464547"/>
<path d="M503.59 151.069C503.59 151.069 496.69 148.473 493.543 144.361C493.543 144.361 487.278 146.048 485.995 148.615C485.409 148.1 485.03 147.38 484.931 146.594C484.831 145.808 485.018 145.013 485.456 144.361C485.456 144.361 480.764 145.382 479.84 148.615C479.077 148.242 478.451 147.628 478.054 146.862C477.656 146.096 477.508 145.219 477.632 144.361C477.632 144.361 475.548 145.169 474.872 148.615C474.872 148.615 469.697 137.525 486.795 134.348C485.501 133.897 484.145 133.662 482.779 133.653C482.779 133.653 494.716 128.703 504.169 133.228C513.622 137.752 511.98 146.516 503.59 151.069Z" fill="#464547"/>
<path d="M546.48 285.062L529.92 287.331C529.92 287.331 523.089 238.275 520.08 222.433V188.623L528.733 186.283L535.44 188.623C537.279 195.425 538.694 202.341 539.676 209.329C540.491 214.633 541.222 220.306 541.871 226.05C542.768 233.878 543.513 241.849 544.148 249.308C545.141 261.349 545.804 272 546.162 278.51C546.369 282.594 546.48 285.062 546.48 285.062Z" fill="#6F2877"/>
<path d="M520.094 222.405C520.094 222.405 521.474 198.536 528.747 186.226C528.747 186.226 528.567 182.709 527.118 182.142C525.669 181.575 520.094 184.978 520.094 184.978C520.094 184.978 516.63 182.539 515.871 183.674C515.112 184.808 513.263 192.353 520.094 222.405Z" fill="#6F2877"/>
<path opacity="0.7" d="M520.094 222.405C520.094 222.405 521.474 198.536 528.747 186.226C528.747 186.226 528.567 182.709 527.118 182.142C525.669 181.575 520.094 184.978 520.094 184.978C520.094 184.978 516.63 182.539 515.871 183.674C515.112 184.808 513.263 192.353 520.094 222.405Z" fill="white"/>
<path d="M482.448 291.6L484.339 293.018C484.339 293.018 481.579 277.205 482.71 237.211C482.71 235.283 482.834 233.425 482.903 231.652C484.283 197.813 489.417 191.658 489.803 191.29L485.029 192.963L476.376 196.026C473.768 224.887 482.448 291.6 482.448 291.6Z" fill="#6F2877"/>
<path d="M483.193 225.823C483.193 225.823 478.418 202.621 479.84 194.622C481.261 186.623 486.353 190.183 486.353 190.183C486.353 190.183 491.032 186.297 492.425 190.58C492.425 190.58 485.995 195.232 483.193 225.823Z" fill="#6F2877"/>
<path opacity="0.7" d="M483.193 225.823C483.193 225.823 478.418 202.621 479.84 194.622C481.261 186.623 486.353 190.183 486.353 190.183C486.353 190.183 491.032 186.297 492.425 190.58C492.425 190.58 485.995 195.232 483.193 225.823Z" fill="white"/>
<path opacity="0.2" d="M541.843 225.993C534.778 221.923 533.839 211.301 533.839 211.301C534.267 211.13 536.889 210.208 539.649 209.272C540.463 214.577 541.195 220.249 541.843 225.993Z" fill="#464547"/>
<path opacity="0.2" d="M507.288 363.858L513.236 330.601L512.09 313.001C512.09 313.001 503.935 343.521 507.288 363.858Z" fill="#464547"/>
<path opacity="0.2" d="M546.135 278.453C541.691 278.141 537.855 277.843 537.855 277.843L537.013 259.279C538.398 258.388 540.061 258.073 541.664 258.399C542.756 255.434 543.583 252.372 544.134 249.252C545.1 261.293 545.776 271.958 546.135 278.453Z" fill="#464547"/>
<path d="M547.653 249.238L539 263.519L545.845 267.561L553.973 254.698L547.653 249.238Z" fill="#E4897B"/>
<path d="M535.067 188.396C540.891 189.049 565.648 223.965 566.738 234.488C567.829 245.011 552.193 263.179 552.193 263.179L541.76 256.868C541.76 256.868 552.359 240.119 552.911 235.594C553.463 231.07 533.522 212.79 533.522 212.79C532.014 208.578 531.184 204.143 531.065 199.657C530.789 191.97 535.067 188.396 535.067 188.396Z" fill="#6F2877"/>
<path d="M536.999 259.293C536.999 259.293 545.9 261.25 549.488 267.008C549.488 267.008 545.762 278.992 543.099 280.297C540.435 281.601 533.839 281.601 533.839 281.601C533.839 281.601 533.411 268.27 536.999 259.293Z" fill="#6F2877"/>
</svg>
