<svg width="20" height="22" viewBox="0 0 20 22" fill="none" xmlns="http://www.w3.org/2000/svg">
<g id="login signup icons">
<path id="ic_user" d="M18.5 21.5C18.5 17.63 14.65 14.5 9.91001 14.5C5.17001 14.5 1.32001 17.63 1.32001 21.5M9.91001 11.5C11.2361 11.5 12.5079 10.9732 13.4455 10.0355C14.3832 9.09785 14.91 7.82608 14.91 6.5C14.91 5.17392 14.3832 3.90215 13.4455 2.96447C12.5079 2.02678 11.2361 1.5 9.91001 1.5C8.58393 1.5 7.31216 2.02678 6.37447 2.96447C5.43679 3.90215 4.91001 5.17392 4.91001 6.5C4.91001 7.82608 5.43679 9.09785 6.37447 10.0355C7.31216 10.9732 8.58393 11.5 9.91001 11.5Z" stroke="#6F2877" stroke-opacity="0.25" stroke-width="1.5" stroke-linejoin="round"/>
</g>
</svg>
