<svg width="16" height="22" viewBox="0 0 16 22" fill="none" xmlns="http://www.w3.org/2000/svg">
<path id="Vector" d="M7.815 9.96536C7.715 9.95536 7.595 9.95536 7.485 9.96536C6.3372 9.92639 5.24964 9.4422 4.45263 8.61532C3.65562 7.78844 3.21174 6.68381 3.215 5.53536C3.215 3.08536 5.195 1.09536 7.655 1.09536C8.23741 1.08485 8.81619 1.18917 9.35829 1.40234C9.90039 1.61551 10.3952 1.93338 10.8144 2.33777C11.2337 2.74217 11.5692 3.22519 11.8018 3.75925C12.0344 4.29331 12.1595 4.86795 12.17 5.45036C12.1805 6.03277 12.0762 6.61155 11.863 7.15365C11.6498 7.69575 11.332 8.19056 10.9276 8.60981C10.5232 9.02907 10.0402 9.36457 9.50611 9.59715C8.97205 9.82974 8.39741 9.95486 7.815 9.96536ZM2.815 13.6553C0.395 15.2753 0.395 17.9153 2.815 19.5253C5.565 21.3653 10.075 21.3653 12.825 19.5253C15.245 17.9053 15.245 15.2653 12.825 13.6553C10.085 11.8253 5.575 11.8253 2.815 13.6553Z" stroke="#464547" stroke-width="2" stroke-linecap="round" stroke-linejoin="round"/>
</svg>
