<svg width="25" height="25" viewBox="0 0 25 25" fill="none" xmlns="http://www.w3.org/2000/svg">
<path id="Vector" d="M12.5 0C5.6125 0 0 5.6125 0 12.5C0 19.3875 5.6125 25 12.5 25C19.3875 25 25 19.3875 25 12.5C25 5.6125 19.3875 0 12.5 0ZM18.475 9.625L11.3875 16.7125C11.2125 16.8875 10.975 16.9875 10.725 16.9875C10.475 16.9875 10.2375 16.8875 10.0625 16.7125L6.525 13.175C6.1625 12.8125 6.1625 12.2125 6.525 11.85C6.8875 11.4875 7.4875 11.4875 7.85 11.85L10.725 14.725L17.15 8.3C17.5125 7.9375 18.1125 7.9375 18.475 8.3C18.8375 8.6625 18.8375 9.25 18.475 9.625Z" fill="#B9E5FB"/>
</svg>
