<svg width="27" height="26" viewBox="0 0 27 26" fill="none" xmlns="http://www.w3.org/2000/svg">
<path id="Vector" d="M13.5 4.74987V23.7669M8.1875 8.55328H5.375M9.125 12.3567H5.375M26 19.0127V3.71027C26 2.18891 24.775 1.06056 23.2875 1.18734H23.2125C20.5875 1.41555 16.6 2.7721 14.375 4.19204L14.1625 4.33149C13.8 4.5597 13.2 4.5597 12.8375 4.33149L12.525 4.14132C10.3 2.73406 6.325 1.39019 3.7 1.17466C2.2125 1.04788 1 2.18891 1 3.69759V19.0127C1 20.2297 1.975 21.3708 3.175 21.5229L3.5375 21.5736C6.25 21.9413 10.4375 23.3359 12.8375 24.6671L12.8875 24.6924C13.225 24.8826 13.7625 24.8826 14.0875 24.6924C16.4875 23.3485 20.6875 21.9413 23.4125 21.5736L23.825 21.5229C25.025 21.3708 26 20.2297 26 19.0127Z" stroke="#464547" stroke-width="1.5" stroke-linecap="round" stroke-linejoin="round"/>
</svg>
