<svg width="25" height="24" viewBox="0 0 25 24" fill="none" xmlns="http://www.w3.org/2000/svg">
<g id="star=selected">
<path id="ic_star" d="M14.4868 2.57704L16.5106 6.45222C16.7865 6.99166 17.5224 7.50909 18.1434 7.60817L21.8115 8.19165C24.1572 8.56595 24.7092 10.1953 23.0188 11.8026L20.1672 14.5328C19.6842 14.9952 19.4197 15.887 19.5692 16.5255L20.3856 19.9052C21.0296 22.5804 19.5462 23.6153 17.074 22.2171L13.6359 20.2685C13.0149 19.9163 11.9916 19.9163 11.3591 20.2685L7.92101 22.2171C5.46028 23.6153 3.96544 22.5694 4.60937 19.9052L5.42578 16.5255C5.57527 15.887 5.3108 14.9952 4.82785 14.5328L1.97616 11.8026C0.29735 10.1953 0.837791 8.56595 3.18353 8.19165L6.85163 7.60817C7.46106 7.50909 8.19698 6.99166 8.47295 6.45222L10.4967 2.57704C11.6006 0.474319 13.3944 0.474319 14.4868 2.57704Z" fill="#FFC700" stroke="#FFC700" stroke-linecap="round" stroke-linejoin="round"/>
</g>
</svg>
